<?xml version="1.0" encoding="UTF-8"?>
<svg version="1.1" xmlns="http://www.w3.org/2000/svg" width="512" height="511">
<path d="M0 0 C1.1096158 -0.00507454 2.2192316 -0.01014909 3.36247212 -0.0153774 C4.57112413 -0.01587516 5.77977615 -0.01637292 7.02505398 -0.01688576 C8.31705524 -0.02126801 9.60905651 -0.02565027 10.94020933 -0.03016531 C14.51989663 -0.04208995 18.09957048 -0.04776959 21.67927372 -0.05234647 C25.5422946 -0.05831763 29.40529952 -0.06992307 33.26830959 -0.08063698 C42.59033715 -0.10511739 51.91236996 -0.11977707 61.23441973 -0.13269705 C63.86693149 -0.13641068 66.49944272 -0.14038372 69.13195395 -0.14444971 C85.48068705 -0.16967626 101.829421 -0.19172832 118.17816925 -0.20417786 C121.96155774 -0.20710749 125.7449462 -0.21006918 129.52833462 -0.21308327 C130.93882918 -0.21420234 130.93882918 -0.21420234 132.37781858 -0.21534403 C147.62865207 -0.22801222 162.87936937 -0.26125872 178.13014848 -0.3028851 C193.78668517 -0.34526924 209.44316226 -0.36886836 225.09975618 -0.37409842 C233.89105697 -0.37751537 242.68217577 -0.38930487 251.47342014 -0.42220116 C258.95560942 -0.45015376 266.43757935 -0.46122188 273.9198168 -0.4500057 C277.7382807 -0.44480771 281.55628487 -0.44777914 285.37468243 -0.47247124 C289.51114671 -0.49899774 293.6465925 -0.48694334 297.78311062 -0.47098732 C299.59943472 -0.49181045 299.59943472 -0.49181045 301.45245224 -0.51305425 C310.48301562 -0.42681226 310.48301562 -0.42681226 313.58637047 2.4875145 C315.34059048 5.13701439 315.34059048 5.13701439 315.96559048 8.13701439 C315.10995831 12.2440488 313.72181039 13.69102552 310.34059048 16.13701439 C306.65699673 16.26982689 306.65699673 16.26982689 303.34059048 16.13701439 C303.23588157 21.97319857 303.19737826 27.80480936 303.21852016 33.6418972 C303.21658095 35.62441757 303.19697998 37.6070063 303.15894985 39.58916283 C302.54232348 50.9236809 302.54232348 50.9236809 306.46656704 61.10991478 C308.99872612 63.12413223 311.47685039 64.64500524 314.34059048 66.13701439 C316.02571656 67.59511654 317.69743815 69.06926949 319.34059048 70.57451439 C321.83622561 72.85534525 324.33154998 75.12910221 326.87574673 77.35576439 C369.56298988 114.83080938 397.77024972 174.56912023 402.19673061 230.87389183 C403.62723448 253.37777514 403.92762097 276.99445705 399.34059048 299.13701439 C399.1796188 299.98602318 399.01864712 300.83503197 398.85279751 301.7097683 C391.6290767 339.59093246 375.65722365 379.12398184 349.64527798 408.19951439 C344.35054178 413.84728869 344.35054178 413.84728869 342.90309048 421.13701439 C343.00750454 421.83826439 343.1119186 422.53951439 343.21949673 423.26201439 C343.34059048 425.13701439 343.34059048 425.13701439 341.34059048 428.13701439 C342.62725361 428.14914467 342.62725361 428.14914467 343.93990993 428.16152 C352.01826873 428.23941673 360.09645976 428.32669242 368.17460251 428.42454147 C372.32779815 428.47451649 376.48096821 428.52084633 380.63429165 428.55888939 C384.64145975 428.59572712 388.64841442 428.64208275 392.65540028 428.6950779 C394.18518936 428.71362993 395.71502421 428.72873492 397.24488163 428.74035835 C399.38548737 428.75720723 401.52560346 428.78623798 403.66602993 428.81816673 C405.49470356 428.83815224 405.49470356 428.83815224 407.36032009 428.85854149 C410.34059048 429.13701439 410.34059048 429.13701439 413.34059048 431.13701439 C413.74464321 434.25395775 413.74464321 434.25395775 413.77418423 438.22685814 C413.77942608 438.92718666 413.78466793 439.62751518 413.79006863 440.34906578 C413.79649483 441.83102149 413.79514402 443.31302816 413.7866354 444.79497337 C413.77813399 447.06290707 413.80685775 449.32831478 413.83863735 451.59599876 C413.84024968 453.03545113 413.83967122 454.47490797 413.83668423 455.91435814 C413.83853725 457.2265432 413.84039028 458.53872826 413.84229946 459.8906765 C413.34059048 463.13701439 413.34059048 463.13701439 411.63306522 464.81919575 C408.89942326 466.39061735 407.29802275 466.49736849 404.15928555 466.46845055 C403.1112022 466.46653709 402.06311886 466.46462364 400.98327541 466.46265221 C399.83839153 466.44550667 398.69350765 466.42836113 397.51393032 466.41069603 C395.69836887 466.40188911 395.69836887 466.40188911 393.84612942 466.39290428 C391.21316604 466.3792389 388.580775 466.36036797 385.94796276 466.33374786 C381.7672527 466.29338519 377.58681209 466.2834607 373.40592861 466.27969933 C361.51663084 466.26549152 349.62785344 466.23131842 337.73902798 466.12016869 C331.17204683 466.05902553 324.60594799 466.03447704 318.03868735 466.04910749 C314.5720102 466.05527213 311.10760767 466.0435882 307.64135265 465.98621368 C291.53244309 465.73017572 279.4732172 466.46839477 266.10208225 475.96330738 C261.56226803 478.98825012 256.32416009 480.81945621 251.27809048 482.82451439 C249.569277 483.50912743 249.569277 483.50912743 247.82594204 484.20757103 C188.00366228 507.59707464 119.43846089 506.88538546 60.39527798 481.41045189 C42.8363611 473.61463957 42.8363611 473.61463957 36.40179348 469.05414391 C31.23226121 466.11799293 25.74545299 466.58988954 19.95118618 466.63872337 C18.7178857 466.63320457 17.48458523 466.62768578 16.21391201 466.62199974 C13.54314324 466.61269096 10.87351359 466.61050151 8.20285892 466.62059402 C3.97943608 466.63620981 -0.2435857 466.62244065 -4.46698093 466.60455894 C-12.66524877 466.5738052 -20.86339263 466.57223611 -29.0617075 466.57420921 C-39.5080474 466.57560426 -49.95429275 466.56527188 -60.40056258 466.52563149 C-64.59857846 466.51070001 -68.79623696 466.51096523 -72.99425828 466.52310932 C-76.21559435 466.52892246 -79.43686842 466.51579085 -82.65818882 466.50591087 C-84.40143688 466.51748978 -84.40143688 466.51748978 -86.17990208 466.5293026 C-87.24388218 466.52254509 -88.30786228 466.51578758 -89.40408421 466.5088253 C-90.78972836 466.50970477 -90.78972836 466.50970477 -92.20336533 466.510602 C-95.16455989 466.06017623 -96.53651389 465.23093689 -98.65940952 463.13701439 C-99.16111851 459.8906765 -99.16111851 459.8906765 -99.15550327 455.91435814 C-99.1569585 455.21307289 -99.15841373 454.51178764 -99.15991306 453.78925133 C-99.15825505 452.30901999 -99.14670438 450.82877124 -99.12596226 449.34868431 C-99.09696451 447.07881886 -99.1053608 444.81128282 -99.1183939 442.54131126 C-99.1121576 441.10314884 -99.1037675 439.6649938 -99.09300327 438.22685814 C-99.08325474 436.91580101 -99.0735062 435.60474388 -99.06346226 434.25395775 C-98.93012486 433.22536644 -98.79678745 432.19677513 -98.65940952 431.13701439 C-95.03488838 428.72066696 -92.34980505 428.8307662 -88.1586771 428.81816673 C-87.39746052 428.80812111 -86.63624393 428.79807549 -85.85196018 428.78772545 C-83.33596139 428.75683555 -80.82006929 428.73984235 -78.30394077 428.72295189 C-76.55943982 428.70424489 -74.81494796 428.68467183 -73.07046604 428.66426659 C-68.47889148 428.61288982 -63.88728757 428.57329382 -59.29557896 428.53612328 C-54.61014099 428.49611835 -49.92482571 428.44501001 -45.23948765 428.39482689 C-36.04621439 428.29800198 -26.85287195 428.21361823 -17.65940952 428.13701439 C-18.2090839 427.59119209 -18.75875828 427.0453698 -19.32508945 426.48300743 C-20.40637623 425.40621475 -20.40637623 425.40621475 -21.50950718 424.30766869 C-22.22418156 423.59684639 -22.93885593 422.88602409 -23.67518711 422.15366173 C-27.67236003 418.09116949 -31.12491878 413.59945671 -34.65940952 409.13701439 C-35.4302689 408.1947097 -36.20112827 407.25240501 -36.99534702 406.28154564 C-64.43039754 371.96553585 -81.13616937 329.56167052 -86.65940952 286.13701439 C-86.7463306 285.46156075 -86.83325169 284.7861071 -86.92280674 284.09018517 C-87.58558754 278.58780698 -87.84690207 273.15706 -87.89769077 267.61748314 C-87.90752995 266.72933418 -87.91736912 265.84118523 -87.92750645 264.92612267 C-88.50671061 198.99768838 -68.95406839 136.52172557 -22.65940952 88.13701439 C-23.39417515 87.55049095 -24.12894077 86.96396751 -24.88597202 86.35967064 C-26.25882359 85.2594558 -26.25882359 85.2594558 -27.65940952 84.13701439 C-28.3890189 83.55822533 -29.11862827 82.97943626 -29.87034702 82.38310814 C-40.4356044 73.55329918 -45.7198384 63.40182891 -46.97190952 49.72295189 C-47.41300796 37.28948975 -44.21657491 26.97793855 -36.65940952 17.13701439 C-36.08190952 16.27076439 -35.50440952 15.40451439 -34.90940952 14.51201439 C-25.68827087 4.77859025 -13.28057934 0.03241266 0 0 Z " fill="#FB3745" transform="translate(98.65940952301025,5.862985610961914)"/>
<path d="M0 0 C1.23847848 -0.00310645 2.47695696 -0.0062129 3.75296509 -0.00941348 C5.13476041 0.00238475 6.51655335 0.01446289 7.89834404 0.02679062 C9.36039856 0.02889587 10.82245547 0.02968259 12.28451145 0.02925944 C16.31208183 0.03194863 20.33936823 0.05348113 24.36685681 0.07800651 C28.7063065 0.10117779 33.04578313 0.10704846 37.38528252 0.1150322 C45.88970796 0.13341981 54.39399768 0.16783301 62.89834751 0.20751056 C72.79251754 0.25303854 82.68671535 0.28246142 92.58094631 0.31108579 C110.22788638 0.36265747 127.87474509 0.4284053 145.52160454 0.50231552 C162.66415897 0.57409671 179.80671305 0.63676144 196.94933891 0.68883896 C198.5334032 0.6936536 198.5334032 0.6936536 200.14946879 0.69856551 C202.27673625 0.70502496 204.4040037 0.71148378 206.53127115 0.71794198 C208.10513802 0.72272275 208.10513802 0.72272275 209.71080017 0.7276001 C210.75731444 0.73077591 211.80382871 0.73395171 212.88205553 0.73722376 C229.19360103 0.78705283 245.50512068 0.84453024 261.8166369 0.90307601 C267.73856775 0.9242652 273.66050103 0.94445519 279.58243765 0.9639605 C288.97306124 0.9949641 298.36365993 1.0292839 307.75424494 1.07044825 C312.04795046 1.08921833 316.34164668 1.1064175 320.63537407 1.11936378 C324.55946427 1.13126113 328.48350668 1.14772893 332.40756236 1.16799089 C333.8334499 1.17454652 335.25934642 1.17939645 336.68524577 1.18244508 C338.61080749 1.1868199 340.53635081 1.19783825 342.46188354 1.20927429 C343.53524558 1.21355855 344.60860762 1.21784281 345.71449578 1.2222569 C348.10510063 1.35631943 348.10510063 1.35631943 349.10510063 2.35631943 C349.20481218 4.65143439 349.2330993 6.94966492 349.23449516 9.24694443 C349.23712364 10.32740036 349.23712364 10.32740036 349.23980522 11.42968369 C349.24422352 13.82191977 349.24128584 16.21408253 349.23791313 18.60631943 C349.23858618 20.26159301 349.23955621 21.9168665 349.2408123 23.57213974 C349.24228924 27.0457821 349.24013484 30.51939879 349.23547173 33.99303818 C349.22977444 38.45564441 349.23305346 42.9181905 349.23904419 47.38079453 C349.2426499 50.80017173 349.24151117 54.21953457 349.2389164 57.6389122 C349.23824716 59.28482699 349.23907545 60.93074306 349.24139595 62.57665634 C349.24392265 64.87303774 349.24008167 67.16932042 349.23449516 69.46569443 C349.23330177 71.42974228 349.23330177 71.42974228 349.23208427 73.43346786 C349.10510063 76.35631943 349.10510063 76.35631943 348.10510063 77.35631943 C348.85275688 77.38210068 349.60041313 77.40788193 350.37072563 77.43444443 C358.3394652 77.89337707 358.3394652 77.89337707 361.79260063 79.98131943 C363.62922975 83.30474354 363.58032061 85.62244816 363.10510063 89.35631943 C361.27394856 91.97225095 360.19541697 92.32621398 357.10510063 93.35631943 C355.34487566 93.44737539 353.58134861 93.47932141 351.81877041 93.47822475 C350.71596125 93.47999901 349.6131521 93.48177326 348.47692448 93.48360127 C347.26041783 93.48048666 346.04391118 93.47737205 344.7905407 93.47416306 C343.50195811 93.47486764 342.21337553 93.47557222 340.88574499 93.47629815 C338.05081335 93.47782274 335.21590678 93.4761776 332.38097763 93.4721508 C327.76834421 93.46563272 323.15572588 93.465959 318.54308891 93.46722031 C312.71367349 93.46834132 306.88426281 93.46769531 301.05484789 93.4650195 C289.59245039 93.45989484 278.13009689 93.46824331 266.66770744 93.48163986 C264.86326586 93.48368659 263.05882427 93.48572892 261.25438267 93.48776692 C257.60065836 93.4919232 253.94693413 93.49613839 250.29320991 93.50037444 C240.89579106 93.51118034 231.49837153 93.52098313 222.10095024 93.52941513 C221.15776959 93.53026638 220.21458894 93.53111763 219.24282705 93.53199468 C203.97393819 93.54520212 188.7051016 93.54020465 173.43621332 93.52934357 C157.75595506 93.51870369 142.07582679 93.53092621 126.39559835 93.56342584 C116.7272089 93.58268148 107.05916706 93.58373879 97.390783 93.56126956 C90.7580107 93.54749601 84.1254912 93.5557089 77.49275375 93.58099415 C73.66934723 93.5949038 69.84657964 93.59923099 66.02319717 93.57716942 C61.8691225 93.55344395 57.71656707 93.57643668 53.56251335 93.60355759 C51.76786812 93.58215526 51.76786812 93.58215526 49.93696743 93.56032056 C40.88385116 93.67938849 33.04986053 96.05850986 26.10151631 102.09776372 C24.52195932 103.75610776 23.31684717 105.41431505 22.10510063 107.35631943 C21.69517876 108.00085068 21.28525688 108.64538193 20.86291313 109.30944443 C16.90277494 116.68349485 16.82328326 125.24961384 18.83556938 133.26647568 C21.97806722 141.77045962 26.97300393 147.29762379 35.10510063 151.35631943 C39.14262154 152.88424254 42.48767585 153.60636592 46.79853821 153.60685921 C47.9157375 153.6118579 49.03293679 153.6168566 50.1839906 153.62200677 C51.40110663 153.61734356 52.61822266 153.61268035 53.87222099 153.60787582 C55.8235319 153.61233103 55.8235319 153.61233103 57.81426322 153.61687624 C61.4187199 153.62490686 65.02307262 153.62061402 68.62752891 153.61435747 C72.51711479 153.609821 76.40668096 153.61686515 80.29626274 153.62266159 C87.0340235 153.6312916 93.771758 153.6331035 100.50952339 153.63071442 C110.25554839 153.62761743 120.0015153 153.63925282 129.74752568 153.65526421 C145.56576812 153.68122217 161.38401061 153.70124412 177.2022686 153.71471786 C178.62212847 153.71593342 178.62212847 153.71593342 180.07067238 153.71717353 C193.51325946 153.72840267 206.95584241 153.73367801 220.39843355 153.73656066 C221.34561318 153.73676465 222.29279281 153.73696863 223.26867485 153.7371788 C224.21470149 153.73737874 225.16072813 153.73757867 226.13542224 153.73778467 C241.89707603 153.74151438 257.65866672 153.76057568 273.42028892 153.79227316 C283.14487732 153.8112112 292.86930412 153.81713492 302.59390591 153.80645598 C309.25270713 153.80014894 315.91139219 153.80814319 322.57016791 153.8275101 C326.41475552 153.83821855 330.25906129 153.84229915 334.10364723 153.82903862 C338.26665191 153.81482345 342.4289648 153.83125964 346.59194756 153.85079575 C347.81352503 153.84167109 349.0351025 153.83254643 350.29369748 153.82314527 C351.40568127 153.83335946 352.51766506 153.84357365 353.66334534 153.85409737 C355.10520114 153.85474947 355.10520114 153.85474947 356.57618535 153.85541475 C359.8775474 154.5093187 361.06822849 155.7217805 363.10510063 158.35631943 C363.60510063 161.85631943 363.60510063 161.85631943 363.10510063 165.35631943 C361.07281963 167.98163165 359.88172353 169.2018114 356.59065205 169.85656542 C355.15904465 169.85672642 355.15904465 169.85672642 353.69851589 169.85689068 C352.59433239 169.86670497 351.49014888 169.87651926 350.35250527 169.88663095 C348.53313774 169.87222344 348.53313774 169.87222344 346.6770153 169.85752487 C344.74391814 169.86582647 344.74391814 169.86582647 342.77176851 169.87429577 C339.19145423 169.88908242 335.61157833 169.87885029 332.03127801 169.86455905 C328.17078234 169.85347019 324.31034923 169.86538538 320.44985771 169.87440109 C312.88337215 169.88835341 305.31705321 169.88076103 297.75057555 169.86572551 C288.93412641 169.84887335 280.11771888 169.85207505 271.30125862 169.85581959 C255.5609529 169.86170263 239.82072708 169.84751346 224.08044243 169.82287216 C208.82129732 169.79898686 193.56225912 169.79185303 178.30309868 169.80236435 C161.6850546 169.81379126 145.06706002 169.8156789 128.44901651 169.80126625 C126.67415997 169.79974046 124.89930342 169.79822011 123.12444687 169.79670525 C122.25123312 169.79594743 121.37801938 169.79518962 120.47834461 169.79440884 C114.34036819 169.78967681 108.20241394 169.79151004 102.06443787 169.79577065 C94.57183128 169.800714 87.07932552 169.79463998 79.58674193 169.77487635 C75.76742774 169.76504839 71.94826659 169.75984996 68.1289444 169.76776886 C63.97783252 169.77619896 59.82712374 169.76115969 55.67603874 169.74399948 C54.48320355 169.75000953 53.29036836 169.75601957 52.06138664 169.76221174 C40.07761765 169.67251901 29.60375685 167.97017353 20.10510063 160.35631943 C19.47990532 159.89225693 18.85471001 159.42819443 18.21056938 158.95006943 C10.24580932 152.70319879 3.83650244 142.52482082 2.35510063 132.41881943 C2.24531165 131.06654054 2.16337345 129.71179576 2.10510063 128.35631943 C2.04515923 127.18262802 2.04515923 127.18262802 1.98400688 125.98522568 C1.61155286 111.94151818 6.19714951 100.72660018 15.82775688 90.43053818 C21.56605015 85.20406524 27.75620499 81.72376166 35.10510063 79.35631943 C33.26564873 79.33444565 33.26564873 79.33444565 31.38903618 79.31212997 C26.84332797 79.2541986 22.29811782 79.17696562 17.75280571 79.09386826 C15.78478892 79.06059457 13.81667614 79.03257028 11.84850883 79.00988388 C9.02086251 78.97638265 6.19409781 78.9240698 3.36681938 78.86803818 C2.48547829 78.86164825 1.60413719 78.85525833 0.69608879 78.84867477 C-0.12453545 78.82888062 -0.94515968 78.80908646 -1.79065132 78.78869247 C-2.51235008 78.77758942 -3.23404884 78.76648636 -3.97761726 78.75504684 C-6.59612317 78.21048948 -7.40645154 77.59222487 -8.89489937 75.35631943 C-9.2758503 72.28234482 -9.2758503 72.28234482 -9.28308296 68.45397568 C-9.28833992 67.7560994 -9.29359688 67.05822311 -9.29901314 66.33919907 C-9.31221783 64.03217823 -9.30347392 61.72584729 -9.29333687 59.41881943 C-9.29535748 57.81603488 -9.29826881 56.21325122 -9.30203438 54.61046982 C-9.30645835 51.25124992 -9.30002449 47.89226933 -9.28601265 44.53307724 C-9.26892052 40.22525104 -9.27876134 35.91798553 -9.29673004 31.6101799 C-9.30756603 28.30049025 -9.30412244 24.99093372 -9.29634666 21.68124008 C-9.29434413 20.09279947 -9.2968058 18.5043468 -9.30378532 16.91592026 C-9.311397 14.69650847 -9.29980082 12.47800708 -9.28308296 10.25866318 C-9.28069618 8.99530136 -9.2783094 7.73193954 -9.2758503 6.43029404 C-8.89489937 3.35631943 -8.89489937 3.35631943 -7.73952115 1.68646598 C-5.11521341 -0.2059078 -3.21939496 -0.01089892 0 0 Z " fill="#293D7C" transform="translate(77.89489936828613,174.64368057250977)"/>
<path d="M0 0 C1.6591986 -0.00576172 1.6591986 -0.00576172 3.35191637 -0.01163983 C5.15905797 -0.01034011 5.15905797 -0.01034011 7.00270748 -0.00901413 C8.29062519 -0.01198525 9.57854291 -0.01495637 10.90548843 -0.01801753 C14.47377904 -0.02606548 18.0420495 -0.02787586 21.61034811 -0.028615 C25.46109547 -0.03046928 29.31183247 -0.03801826 33.16257381 -0.04475021 C41.57757368 -0.05831601 49.99256877 -0.06435485 58.40757775 -0.06876087 C63.66108981 -0.07152494 68.91460003 -0.07576247 74.16811085 -0.08026505 C88.71295112 -0.09245292 103.25778992 -0.10275481 117.80263519 -0.10614014 C118.7329642 -0.1063597 119.66329321 -0.10657927 120.62181401 -0.10680549 C122.02062809 -0.10713291 122.02062809 -0.10713291 123.44770104 -0.10746694 C125.33736932 -0.1079104 127.22703761 -0.10835697 129.11670589 -0.10880661 C130.05404499 -0.10902804 130.99138408 -0.10924947 131.95712738 -0.10947761 C147.15942718 -0.11342917 162.36167914 -0.13089624 177.56396044 -0.15416613 C193.17077771 -0.17786267 208.77757095 -0.19034113 224.38440651 -0.19150805 C233.14770868 -0.1924255 241.91094844 -0.19819583 250.67423344 -0.21632767 C258.13260004 -0.2317054 265.59088494 -0.23686273 273.04926438 -0.22858956 C276.85546293 -0.22467545 280.66149679 -0.22564972 284.46767521 -0.23964691 C288.59080053 -0.25467144 292.71355263 -0.24654247 296.83669186 -0.23606491 C298.64717954 -0.24814952 298.64717954 -0.24814952 300.49424273 -0.26047826 C301.59776738 -0.25388841 302.70129204 -0.24729857 303.83825684 -0.24050903 C304.79000103 -0.24110612 305.74174523 -0.24170321 306.72233015 -0.24231839 C310.17674726 0.24786197 312.87391293 1.64913284 315.35620785 4.13142776 C315.9441542 10.36365912 315.9441542 10.36365912 313.67218363 13.33050764 C310.86069356 15.51674339 309.51575255 15.63203026 305.98809528 15.63364983 C304.89251187 15.64386402 303.79692845 15.65407821 302.66814554 15.66460192 C301.46486034 15.65547727 300.26157513 15.64635261 299.02182674 15.63695145 C297.74322926 15.64304157 296.46463178 15.64913169 295.14728892 15.65540636 C291.59539682 15.67182139 288.04392933 15.66335035 284.49203706 15.65091515 C280.66226496 15.64186951 276.83257065 15.65587464 273.00281429 15.66717911 C266.3643144 15.68369504 259.72593497 15.68581068 253.08742046 15.67841339 C243.47833911 15.66790206 233.86940525 15.68128201 224.26034351 15.70087795 C208.65639286 15.73223416 193.05247334 15.74722466 177.448493 15.75056839 C176.51432508 15.75077238 175.58015715 15.75097637 174.6176811 15.75118653 C173.2147196 15.75149159 173.2147196 15.75149159 171.78341544 15.7518028 C158.53765532 15.7547198 145.29190483 15.76151651 132.04614925 15.77302933 C130.64933173 15.77423727 130.64933173 15.77423727 129.22429566 15.77546962 C113.68643928 15.78923451 98.14860002 15.81103321 82.61075938 15.83689916 C73.02915501 15.85233026 63.44760669 15.85955695 53.86599012 15.85610424 C47.2959332 15.85406077 40.7259041 15.85873959 34.15585439 15.86864759 C30.36731505 15.87406939 26.57884783 15.87617292 22.79030895 15.86947441 C18.67764489 15.86223932 14.56515024 15.87038723 10.45249081 15.87987137 C9.26258994 15.87520815 8.07268906 15.87054494 6.84673059 15.86574042 C-3.94292671 15.91427603 -12.5507975 16.58158711 -20.64379215 24.13142776 C-26.55979631 30.18188656 -29.82499914 36.51993794 -30.14379215 45.00642776 C-29.77558378 54.34229159 -26.80421371 61.59611692 -20.5226984 68.47517776 C-18.67720836 70.27846392 -18.67720836 70.27846392 -16.05687809 71.22444534 C-13.64379215 73.13142776 -13.64379215 73.13142776 -13.0761652 76.77669144 C-13.0769555 78.28449158 -13.10513446 79.79243796 -13.1555109 81.29939651 C-13.16258564 82.09420929 -13.16966038 82.88902206 -13.1769495 83.70792007 C-13.20493341 86.24588137 -13.26767375 88.78163383 -13.33129215 91.31892776 C-13.35637011 93.03959902 -13.37918416 94.76030487 -13.39965153 96.48103714 C-13.45477248 100.69868474 -13.54106804 104.91468184 -13.64379215 109.13142776 C-9.74103684 107.65318514 -6.98152818 106.00305068 -3.76879215 103.31892776 C-2.89867496 102.61123245 -2.02855778 101.90353714 -1.1320734 101.17439651 C0.35460152 99.95378272 1.83769091 98.72875031 3.3132391 97.49470901 C6.01122735 95.36920585 8.09244037 94.17845862 11.48902035 93.57283401 C17.1311735 94.38781169 20.27911162 97.45122824 24.54370785 101.06892776 C26.1158179 102.37540102 27.69247467 103.67642736 29.2741766 104.97127151 C30.30707821 105.84320145 30.30707821 105.84320145 31.36084652 106.73274612 C33.52491548 108.42736703 33.52491548 108.42736703 37.35620785 109.13142776 C37.35620785 98.57142776 37.35620785 88.01142776 37.35620785 77.13142776 C72.32147727 77.04104752 107.28670927 76.96941382 142.25207086 76.92716645 C146.37776646 76.92216347 150.50346182 76.9169862 154.62915707 76.9117012 C155.45052689 76.91065196 156.27189671 76.90960272 157.11815652 76.90852168 C170.42683559 76.89110488 183.73544572 76.8595602 197.04408386 76.82281658 C210.69464867 76.78544258 224.34517732 76.76319942 237.9957912 76.75507379 C246.42254181 76.74957864 254.84909757 76.73220774 263.27578822 76.6997619 C269.05017889 76.67865767 274.82446847 76.6722184 280.59889492 76.67742226 C283.93318903 76.67999053 287.26686641 76.67381776 290.60114765 76.65460587 C294.21274952 76.63481001 297.82350634 76.63945134 301.4351263 76.6504097 C302.49348572 76.63875833 303.55184514 76.62710697 304.64227605 76.61510253 C311.69356525 76.67324307 311.69356525 76.67324307 315.01533794 78.97008514 C316.82103358 81.88067842 316.78582285 83.76611025 316.35620785 87.13142776 C315.69620785 88.12142776 315.03620785 89.11142776 314.35620785 90.13142776 C315.21398327 90.13951462 316.07175869 90.14760147 316.95552731 90.15593338 C325.0338861 90.23383011 333.11207713 90.3211058 341.19021988 90.41895485 C345.34341552 90.46892986 349.49658558 90.5152597 353.64990902 90.55330276 C357.65707712 90.59014049 361.66403179 90.63649613 365.67101765 90.68949127 C367.20080673 90.70804331 368.73064158 90.72314829 370.260499 90.73477173 C372.40110475 90.75162061 374.54122083 90.78065136 376.6816473 90.81258011 C378.51032093 90.83256561 378.51032093 90.83256561 380.37593746 90.85295486 C383.35620785 91.13142776 383.35620785 91.13142776 386.35620785 93.13142776 C386.76026058 96.24837112 386.76026058 96.24837112 386.7898016 100.22127151 C386.79504345 100.92160004 386.8002853 101.62192856 386.805686 102.34347916 C386.8121122 103.82543486 386.81076139 105.30744154 386.80225277 106.78938675 C386.79375136 109.05732045 386.82247512 111.32272816 386.85425472 113.59041214 C386.85586706 115.02986451 386.85528859 116.46932134 386.8523016 117.90877151 C386.85415462 119.22095657 386.85600765 120.53314163 386.85791683 121.88508987 C386.35620785 125.13142776 386.35620785 125.13142776 384.64868259 126.81360912 C381.91504063 128.38503073 380.31364012 128.49178187 377.17490292 128.46286392 C376.12681957 128.46095047 375.07873623 128.45903702 373.99889278 128.45706558 C372.28156696 128.43134727 372.28156696 128.43134727 370.52954769 128.40510941 C369.31917339 128.39923813 368.1087991 128.39336685 366.86174679 128.38731766 C364.22878341 128.37365228 361.59639237 128.35478135 358.96358013 128.32816124 C354.78287007 128.28779857 350.60242946 128.27787408 346.42154598 128.2741127 C334.53224821 128.25990489 322.64347081 128.22573179 310.75464535 128.11458206 C304.18766421 128.0534389 297.62156536 128.02889041 291.05430472 128.04352087 C287.58762758 128.04968551 284.12322504 128.03800157 280.65697002 127.98062706 C264.54806046 127.7245891 252.48883457 128.46280815 239.11769962 137.95772076 C234.57788541 140.9826635 229.33977746 142.81386958 224.29370785 144.81892776 C223.15449886 145.27533646 222.01528988 145.73174515 220.84155941 146.20198441 C161.01927965 169.59148802 92.45407826 168.87979883 33.41089535 143.40486526 C15.85197847 135.60905295 15.85197847 135.60905295 9.41741085 131.04855728 C4.24787858 128.11240631 -1.23892963 128.58430292 -7.03319645 128.63313675 C-8.26649693 128.62761795 -9.4997974 128.62209915 -10.77047062 128.61641312 C-13.44123939 128.60710434 -16.11086904 128.60491488 -18.7815237 128.6150074 C-23.00494655 128.63062319 -27.22796833 128.61685402 -31.45136356 128.59897232 C-39.6496314 128.56821858 -47.84777526 128.56664948 -56.04609013 128.56862259 C-66.49243002 128.57001764 -76.93867538 128.55968526 -87.38494521 128.52004486 C-91.58296109 128.50511338 -95.78061959 128.5053786 -99.97864091 128.51752269 C-103.19997698 128.52333584 -106.42125105 128.51020422 -109.64257145 128.50032425 C-111.38581951 128.51190315 -111.38581951 128.51190315 -113.16428471 128.52371597 C-114.22826481 128.51695847 -115.29224491 128.51020096 -116.38846684 128.50323868 C-117.77411099 128.50411814 -117.77411099 128.50411814 -119.18774796 128.50501537 C-122.14894252 128.0545896 -123.52089652 127.22535027 -125.64379215 125.13142776 C-126.14550114 121.88508987 -126.14550114 121.88508987 -126.1398859 117.90877151 C-126.14134113 117.20748627 -126.14279636 116.50620102 -126.14429569 115.7836647 C-126.14263768 114.30343336 -126.13108701 112.82318462 -126.11034489 111.34309769 C-126.08134714 109.07323224 -126.08974343 106.80569619 -126.10277653 104.53572464 C-126.09654023 103.09756222 -126.08815013 101.65940718 -126.0773859 100.22127151 C-126.06763737 98.91021439 -126.05788883 97.59915726 -126.04784489 96.24837112 C-125.84783878 94.70548416 -125.84783878 94.70548416 -125.64379215 93.13142776 C-122.0400847 90.72895613 -119.45593056 90.85531301 -115.2961359 90.88850784 C-114.17547482 90.88566032 -114.17547482 90.88566032 -113.03217411 90.88275528 C-110.54844147 90.87903762 -108.06499917 90.88978913 -105.58129215 90.90095901 C-103.83422219 90.90215336 -102.08715157 90.90260344 -100.34008121 90.90234756 C-96.65791192 90.90391559 -92.97583939 90.91221173 -89.2936945 90.92561722 C-84.65794024 90.94231021 -80.02229431 90.94635674 -75.38651371 90.94579124 C-55.11737809 90.94645849 -34.89254125 91.13887212 -14.64379215 92.13142776 C-14.64379215 91.14142776 -14.64379215 90.15142776 -14.64379215 89.13142776 C-15.85035465 88.82205276 -15.85035465 88.82205276 -17.08129215 88.50642776 C-28.88330608 83.9512645 -37.74277877 74.88958526 -42.83910465 63.44783401 C-47.23260972 51.88031891 -46.9445403 39.71777166 -42.64379215 28.13142776 C-36.36290445 15.38916709 -27.31631976 6.97149714 -14.06566715 1.85799026 C-9.40672239 0.46030683 -4.84829022 0.00634871 0 0 Z " fill="#984334" transform="translate(125.64379215240479,343.8685722351074)"/>
<path d="M0 0 C1.1096158 -0.00507454 2.2192316 -0.01014909 3.36247212 -0.0153774 C4.57112413 -0.01587516 5.77977615 -0.01637292 7.02505398 -0.01688576 C8.31705524 -0.02126801 9.60905651 -0.02565027 10.94020933 -0.03016531 C14.51989663 -0.04208995 18.09957048 -0.04776959 21.67927372 -0.05234647 C25.5422946 -0.05831763 29.40529952 -0.06992307 33.26830959 -0.08063698 C42.59033715 -0.10511739 51.91236996 -0.11977707 61.23441973 -0.13269705 C63.86693149 -0.13641068 66.49944272 -0.14038372 69.13195395 -0.14444971 C85.48068705 -0.16967626 101.829421 -0.19172832 118.17816925 -0.20417786 C121.96155774 -0.20710749 125.7449462 -0.21006918 129.52833462 -0.21308327 C130.93882918 -0.21420234 130.93882918 -0.21420234 132.37781858 -0.21534403 C147.62865207 -0.22801222 162.87936937 -0.26125872 178.13014848 -0.3028851 C193.78668517 -0.34526924 209.44316226 -0.36886836 225.09975618 -0.37409842 C233.89105697 -0.37751537 242.68217577 -0.38930487 251.47342014 -0.42220116 C258.95560942 -0.45015376 266.43757935 -0.46122188 273.9198168 -0.4500057 C277.7382807 -0.44480771 281.55628487 -0.44777914 285.37468243 -0.47247124 C289.51114671 -0.49899774 293.6465925 -0.48694334 297.78311062 -0.47098732 C299.59943472 -0.49181045 299.59943472 -0.49181045 301.45245224 -0.51305425 C310.48301562 -0.42681226 310.48301562 -0.42681226 313.58637047 2.4875145 C315.34059048 5.13701439 315.34059048 5.13701439 315.96559048 8.13701439 C315.10995831 12.2440488 313.72181039 13.69102552 310.34059048 16.13701439 C308.03059048 16.13701439 305.72059048 16.13701439 303.34059048 16.13701439 C303.34059048 36.26701439 303.34059048 56.39701439 303.34059048 77.13701439 C305.32059048 77.13701439 307.30059048 77.13701439 309.34059048 77.13701439 C313.04059048 78.53701439 313.04059048 78.53701439 314.34059048 81.13701439 C314.91892102 87.38298423 314.91892102 87.38298423 312.65684402 90.33229119 C309.84367575 92.52418856 308.50024234 92.63718562 304.96803379 92.63758564 C303.32313377 92.65230708 303.32313377 92.65230708 301.64500344 92.66732591 C299.83833193 92.6529184 299.83833193 92.6529184 297.99516201 92.63821983 C296.71530324 92.64375423 295.43544447 92.64928863 294.1168021 92.65499073 C290.56122052 92.66977698 287.0060804 92.65954547 283.45051289 92.64525402 C279.61658305 92.6341648 275.7827162 92.64608051 271.94879055 92.65509605 C264.43410653 92.66904856 256.91959028 92.66145566 249.40491422 92.64642047 C240.64768774 92.62956674 231.89050316 92.63277025 223.13326548 92.63651455 C207.49726182 92.64239772 191.86133857 92.62820841 176.2253561 92.60356712 C161.07005193 92.57968614 145.91485539 92.57254628 130.75953579 92.58305931 C114.25318337 92.59448906 97.74688079 92.59637003 81.24052894 92.58196121 C79.47716928 92.58043544 77.71380961 92.57891508 75.95044994 92.57740021 C75.08290513 92.57664239 74.21536032 92.57588458 73.32152627 92.5751038 C67.22609859 92.57037362 61.13069325 92.57220371 55.03526592 92.57646561 C47.59282666 92.58141164 40.15048887 92.57532331 32.70807274 92.55557131 C28.91496282 92.54575046 25.12200684 92.54053704 21.32888889 92.54846382 C17.20440052 92.55690602 13.08031679 92.54184084 8.95585537 92.52469444 C7.77371492 92.53070449 6.59157446 92.53671453 5.37361157 92.5429067 C-10.20913044 92.42576049 -23.02282679 89.15831715 -34.51878452 78.42607689 C-44.12078095 68.15824859 -47.35889521 56.51947223 -47.00706577 42.66045189 C-46.04064789 32.86596955 -42.6075628 24.88268652 -36.65940952 17.13701439 C-35.79315952 15.83763939 -35.79315952 15.83763939 -34.90940952 14.51201439 C-25.68827087 4.77859025 -13.28057934 0.03241266 0 0 Z " fill="#FEE1B7" transform="translate(98.65940952301025,5.862985610961914)"/>
<path d="M0 0 C1.26219482 -0.00170885 2.52438965 -0.0034177 3.8248328 -0.00517833 C7.30256927 -0.00962119 10.78018106 -0.00169071 14.25790167 0.00837779 C18.01781533 0.01705449 21.77772257 0.01408916 25.53764343 0.01257324 C32.04344458 0.01152705 38.54920547 0.01777581 45.05499649 0.02904892 C54.46114937 0.04533707 63.86728288 0.05051531 73.27344833 0.0530249 C88.53614089 0.05739681 103.798812 0.07069221 119.06149292 0.08963013 C133.88343194 0.10800199 148.70536512 0.1221521 163.52731323 0.13064575 C164.89888384 0.13143392 164.89888384 0.13143392 166.29816295 0.13223802 C170.88556645 0.13484818 175.47296998 0.13737558 180.06037354 0.13986182 C218.0877799 0.16057862 256.11516234 0.19579039 294.14254761 0.24050903 C294.16567525 8.1766469 294.18346484 16.11277079 294.19435978 24.04893398 C294.19958769 27.73365401 294.20668365 31.41835106 294.21798706 35.10305786 C294.22881923 38.65621734 294.23482514 42.20935466 294.23742485 45.76252937 C294.23927851 47.1209657 294.24289799 48.47940075 294.24827766 49.83782768 C294.25549236 51.73433127 294.2559557 53.63085696 294.256073 55.52737427 C294.25829361 56.6088121 294.26051422 57.69024994 294.26280212 58.80445862 C294.14254761 61.24050903 294.14254761 61.24050903 293.14254761 62.24050903 C291.71947596 62.33710075 290.29162502 62.36422745 288.8652792 62.36355686 C287.47241779 62.36654343 287.47241779 62.36654343 286.05141777 62.36959034 C285.01933836 62.3666775 283.98725896 62.36376466 282.92390442 62.36076355 C281.29328539 62.36204519 281.29328539 62.36204519 279.62972456 62.36335272 C275.95681787 62.36501073 272.28395601 62.35948091 268.61105347 62.35403442 C265.99024964 62.3537526 263.36944574 62.3539102 260.74864197 62.35447693 C255.09065721 62.35500235 249.43268394 62.35185366 243.77470207 62.34623909 C235.5941195 62.33812654 227.41354251 62.33550912 219.23295636 62.3342511 C205.96185016 62.33206019 192.69075009 62.32539906 179.41964722 62.31594849 C166.52479076 62.30677537 153.62993596 62.29969404 140.7350769 62.29544067 C139.54365975 62.29504659 139.54365975 62.29504659 138.32817357 62.29464454 C134.34368126 62.29333954 130.35918894 62.29207583 126.37469661 62.29083264 C93.29730896 62.28045882 60.21992954 62.26256506 27.14254761 62.24050903 C27.14254761 72.80050903 27.14254761 83.36050903 27.14254761 94.24050903 C22.53562965 93.31912544 21.48059431 93.07311676 18.18161011 90.29910278 C17.46231323 89.715802 16.74301636 89.13250122 16.00192261 88.53152466 C14.51503489 87.29808371 13.03322005 86.05850124 11.55661011 84.81277466 C8.0394743 81.97708391 5.91655237 80.36255128 1.37692261 79.64675903 C-2.09286926 80.28372566 -3.60049424 81.00886927 -6.23245239 83.30300903 C-6.98655396 83.93464966 -7.74065552 84.56629028 -8.51760864 85.21707153 C-9.28975708 85.88480591 -10.06190552 86.55254028 -10.85745239 87.24050903 C-12.45119695 88.56564496 -14.05508849 89.87869325 -15.66995239 91.17800903 C-16.37764771 91.76453247 -17.08534302 92.35105591 -17.81448364 92.95535278 C-19.85745239 94.24050903 -19.85745239 94.24050903 -23.85745239 94.24050903 C-23.85745239 82.36050903 -23.85745239 70.48050903 -23.85745239 58.24050903 C-25.50745239 57.58050903 -27.15745239 56.92050903 -28.85745239 56.24050903 C-35.50526639 51.25119333 -39.238404 44.32061969 -40.85745239 36.24050903 C-41.76060739 26.00968771 -40.10746952 18.91282701 -33.54495239 10.99050903 C-23.74518463 0.56787468 -13.91015102 -0.06953547 0 0 Z " fill="#FEFDFC" transform="translate(135.85745239257813,358.7594909667969)"/>
<path d="M0 0 C1.27767461 -0.0034177 2.55534922 -0.0068354 3.87174124 -0.01035666 C7.39748086 -0.01925551 10.92272987 -0.00336404 14.44840705 0.01675558 C18.25809959 0.03409025 22.06776628 0.02817964 25.87748718 0.02514648 C32.47120742 0.02305291 39.06476887 0.03556271 45.65844917 0.05809784 C55.19168111 0.09065816 64.72483657 0.10102897 74.25811809 0.10604981 C89.72660117 0.11479614 105.1949997 0.14139375 120.66343689 0.17926025 C135.68621906 0.21599748 150.70897822 0.24430086 165.73179626 0.2612915 C166.65838738 0.2623424 167.58497849 0.26339329 168.53964812 0.26447603 C173.18825843 0.26969632 177.8368689 0.27475112 182.48547947 0.27972364 C221.02737698 0.32116509 259.56911802 0.39489182 298.11094666 0.48101807 C298.11094666 20.61101807 298.11094666 40.74101807 298.11094666 61.48101807 C258.7889889 61.56922192 219.46712455 61.64307009 180.14509616 61.68527938 C175.5013886 61.69028213 170.85768125 61.69545943 166.213974 61.70074463 C165.28950652 61.70179387 164.36503905 61.70284311 163.41255741 61.70392415 C148.44927163 61.72132314 133.48604741 61.75285805 118.52279814 61.78962925 C103.16588517 61.82705274 87.8090044 61.8492569 72.45204771 61.85737205 C62.97813084 61.86285689 53.50438796 61.88017212 44.03052466 61.91268393 C37.53143888 61.9338492 31.03244288 61.94021356 24.53332515 61.93502358 C20.78522382 61.93246492 17.03742626 61.93635072 13.28937912 61.95783997 C9.22015219 61.98099954 5.15156873 61.97294878 1.08229065 61.96203613 C-0.09477491 61.9736875 -1.27184047 61.98533886 -2.48457468 61.9973433 C-12.06109121 61.9279927 -20.22179978 59.84890111 -27.35780334 53.18414307 C-34.25615313 45.51148871 -36.49914253 37.37192164 -36.32655334 27.15679932 C-35.29126346 18.45851558 -30.91121053 11.57927052 -24.30702209 5.98101807 C-16.18746226 0.94400518 -9.51368585 -0.09363148 0 0 Z " fill="#FEFEFF" transform="translate(130.88905334472656,267.51898193359375)"/>
<path d="M0 0 C0.52464844 0.19335938 1.04929687 0.38671875 1.58984375 0.5859375 C9.89523356 3.37743291 18.32803058 4.14487541 27 5 C26.34 5.33 25.68 5.66 25 6 C24.97684652 15.46620178 24.95906954 24.93239384 24.94818783 34.39861774 C24.9429656 38.79399426 24.93587987 43.18935142 24.92456055 47.5847168 C24.91370829 51.82517373 24.90771818 56.06561203 24.90512276 60.30608177 C24.90327274 61.92522665 24.8996602 63.5443705 24.89426994 65.16350746 C24.88702852 67.42844485 24.88601038 69.69330489 24.88647461 71.95825195 C24.884254 73.24842728 24.88203339 74.5386026 24.87974548 75.86787415 C24.85502131 79.03106079 24.85502131 79.03106079 26 82 C9.665 82.495 9.665 82.495 -7 83 C-7 108.08 -7 133.16 -7 159 C15.77 159.495 15.77 159.495 39 160 C36.54921588 161.63385608 34.55834877 162.65357792 31.875 163.75 C19.54328094 169.19517465 10.93195426 177.32333633 6 190 C1.90893244 203.67950715 3.73785853 216.75501207 10.37109375 229.23828125 C14.63745386 236.47165438 19.81971394 240.72570993 27 245 C27.969375 245.5775 28.93875 246.155 29.9375 246.75 C34.17787876 248.48076684 38.49625374 249.24344183 43 250 C43 250.66 43 251.32 43 252 C42.24976562 252.14695312 41.49953125 252.29390625 40.7265625 252.4453125 C33.16577136 254.10221131 27.35596275 256.60967759 21 261 C19.6696875 261.86625 19.6696875 261.86625 18.3125 262.75 C8.55057133 272.24809276 4.03313501 284.06293981 3.625 297.5 C3.74958826 310.60945394 8.90423109 320.71205401 17.875 329.92578125 C22.69529644 334.46424584 27.97663163 337.32157595 34 340 C34 340.99 34 341.98 34 343 C29.66737174 343.20466631 25.33599716 343.32809533 21 343.4375 C19.16888672 343.52547852 19.16888672 343.52547852 17.30078125 343.61523438 C11.3136427 343.72850456 7.06445669 343.79596046 2.3984375 339.76171875 C1.23417772 338.53695583 0.09710083 337.28526838 -1 336 C-1.79148437 335.20335937 -2.58296875 334.40671875 -3.3984375 333.5859375 C-17.4329862 317.88721307 -29.20854517 300.6282532 -39 282 C-39.39687012 281.25105469 -39.79374023 280.50210937 -40.20263672 279.73046875 C-58.22025732 245.25327645 -66.46158514 207.41991991 -66.375 168.6875 C-66.37412384 167.72467102 -66.37324768 166.76184204 -66.37234497 165.76983643 C-66.18788277 104.04967795 -42.89785741 44.61721041 0 0 Z " fill="#FE9418" transform="translate(77,93)"/>
<path d="M0 0 C36.05593517 45.06991897 45.36043246 109.06449779 40.4921875 164.9375 C39.92330229 170.01736155 39.03638787 174.99713858 38 180 C37.83902832 180.84900879 37.67805664 181.69801758 37.51220703 182.57275391 C30.31961321 220.29068828 14.4366115 255.63932705 -9 286 C-9.42764648 286.56605957 -9.85529297 287.13211914 -10.29589844 287.71533203 C-11.49530797 289.30043221 -12.71589588 290.86944095 -13.9375 292.4375 C-14.62714844 293.32308594 -15.31679688 294.20867187 -16.02734375 295.12109375 C-18 297 -18 297 -22 297 C-24.97 296.67 -27.94 296.34 -31 296 C-30.67 275.54 -30.34 255.08 -30 234 C-25.545 233.01 -25.545 233.01 -21 232 C-19.43569752 228.87139505 -19.64372716 226.44397075 -20 223 C-22.35832772 220.52791204 -22.35832772 220.52791204 -25 219 C-24.0409375 218.566875 -24.0409375 218.566875 -23.0625 218.125 C-20.84793921 217.17176549 -20.84793921 217.17176549 -20 215 C-19.59298516 210.4015813 -19.59298516 210.4015813 -21 206.125 C-23.7916486 204.38866823 -23.7916486 204.38866823 -31 204 C-31 183.87 -31 163.74 -31 143 C-26.545 142.01 -26.545 142.01 -22 141 C-19.63589512 139.06268472 -19.63589512 139.06268472 -19.6875 135.5625 C-19.70239055 132.16491013 -19.70239055 132.16491013 -21.1015625 130.3203125 C-23.88776207 128.38258523 -26.33175022 128.47862623 -29.6875 128.3125 C-31.45673828 128.21388672 -31.45673828 128.21388672 -33.26171875 128.11328125 C-34.61716797 128.05720703 -34.61716797 128.05720703 -36 128 C-35.01 127.01 -35.01 127.01 -34 126 C-33.69175341 122.8150933 -33.69175341 122.8150933 -33.74121094 119.01171875 C-33.7377063 118.29287506 -33.73420166 117.57403137 -33.73059082 116.83340454 C-33.72177035 114.45133884 -33.72762364 112.06956885 -33.734375 109.6875 C-33.73302844 108.03605085 -33.73108798 106.38460209 -33.72857666 104.7331543 C-33.72562497 101.26965567 -33.72992443 97.8062601 -33.73925781 94.34277344 C-33.75065242 89.89704689 -33.74409318 85.4515618 -33.73211288 81.00584412 C-33.72489546 77.59499279 -33.72718166 74.18419898 -33.73236847 70.77334595 C-33.73370529 69.13383964 -33.7320561 67.49432815 -33.72740936 65.85482788 C-33.722346 63.56583774 -33.73005138 61.27724192 -33.74121094 58.98828125 C-33.74280212 57.68415283 -33.74439331 56.38002441 -33.74603271 55.03637695 C-33.68020182 51.88932581 -33.68020182 51.88932581 -36 50 C-18.675 49.505 -18.675 49.505 -1 49 C-0.67 32.83 -0.34 16.66 0 0 Z " fill="#FE9418" transform="translate(460,125)"/>
<path d="M0 0 C1.1096158 -0.00507454 2.2192316 -0.01014909 3.36247212 -0.0153774 C4.57112413 -0.01587516 5.77977615 -0.01637292 7.02505398 -0.01688576 C8.31705524 -0.02126801 9.60905651 -0.02565027 10.94020933 -0.03016531 C14.51989663 -0.04208995 18.09957048 -0.04776959 21.67927372 -0.05234647 C25.5422946 -0.05831763 29.40529952 -0.06992307 33.26830959 -0.08063698 C42.59033715 -0.10511739 51.91236996 -0.11977707 61.23441973 -0.13269705 C63.86693149 -0.13641068 66.49944272 -0.14038372 69.13195395 -0.14444971 C85.48068705 -0.16967626 101.829421 -0.19172832 118.17816925 -0.20417786 C121.96155774 -0.20710749 125.7449462 -0.21006918 129.52833462 -0.21308327 C130.93882918 -0.21420234 130.93882918 -0.21420234 132.37781858 -0.21534403 C147.62865207 -0.22801222 162.87936937 -0.26125872 178.13014848 -0.3028851 C193.78668517 -0.34526924 209.44316226 -0.36886836 225.09975618 -0.37409842 C233.89105697 -0.37751537 242.68217577 -0.38930487 251.47342014 -0.42220116 C258.95560942 -0.45015376 266.43757935 -0.46122188 273.9198168 -0.4500057 C277.7382807 -0.44480771 281.55628487 -0.44777914 285.37468243 -0.47247124 C289.51114671 -0.49899774 293.6465925 -0.48694334 297.78311062 -0.47098732 C299.59943472 -0.49181045 299.59943472 -0.49181045 301.45245224 -0.51305425 C310.48301562 -0.42681226 310.48301562 -0.42681226 313.58637047 2.4875145 C315.34059048 5.13701439 315.34059048 5.13701439 315.96559048 8.13701439 C315.32206025 11.22595947 314.51074328 12.92379 312.20497739 15.08888721 C307.88715163 17.51629672 302.50382294 16.79811372 297.69613552 16.74260521 C296.39626585 16.74743306 295.09639618 16.7522609 293.75713652 16.75723505 C290.15037173 16.7700451 286.54432735 16.75180026 282.93763912 16.72859025 C279.04723682 16.70905021 275.15689476 16.71843856 271.26646328 16.72452354 C264.52425576 16.73132067 257.7822644 16.72040504 251.04009342 16.69803429 C241.28116375 16.6661183 231.52243608 16.6664787 221.76346811 16.67567474 C205.91602237 16.69019536 190.06864489 16.68609684 174.22120571 16.66679955 C173.27265021 16.6656511 172.32409471 16.66450266 171.3467951 16.66331941 C163.6530833 16.65386505 155.95937276 16.64351179 148.26566219 16.633111 C141.54771886 16.62406551 134.8297752 16.61537587 128.11183071 16.60722923 C127.16594677 16.6060756 126.22006283 16.60492196 125.24551574 16.60373336 C109.46353732 16.58509302 93.681618 16.58603264 77.89963645 16.60089064 C68.16814833 16.60910283 58.43698149 16.59964432 48.70554205 16.56729496 C42.03361396 16.54623323 35.36182758 16.54284451 28.68987487 16.55324328 C24.84244409 16.55860288 20.99547445 16.55576842 17.14811039 16.53090286 C12.97175251 16.50406356 8.796379 16.51600446 4.61996365 16.53142357 C2.80695341 16.51029778 2.80695341 16.51029778 0.9573167 16.48874521 C-8.03077971 16.57125456 -14.50240036 18.71902908 -21.47190952 24.44951439 C-29.10475721 33.82701298 -30.77077281 42.24512444 -29.65940952 54.13701439 C-28.82678612 57.55790712 -27.59819115 60.21066586 -25.65940952 63.13701439 C-25.04065952 64.08640892 -25.04065952 64.08640892 -24.40940952 65.05498314 C-20.10544829 70.7895224 -13.86245612 74.31297481 -6.85021269 75.68777901 C-3.86295976 76.10835641 -1.05743887 76.26508146 1.9559412 76.27009296 C3.05572351 76.27433401 4.15550582 76.27857506 5.28861487 76.28294462 C6.48627616 76.28255849 7.68393745 76.28217235 8.9178915 76.28177452 C10.83857576 76.28706479 10.83857576 76.28706479 12.79806173 76.29246193 C16.34547737 76.3021345 19.8928769 76.30570622 23.4403038 76.30830491 C27.26853927 76.31220643 31.09676061 76.32184311 34.92498684 76.33086205 C41.55633284 76.34578681 48.18767772 76.35733737 54.81903362 76.36680984 C64.41120399 76.38069044 74.00334809 76.40187851 83.59549956 76.42523838 C99.16416952 76.46313929 114.73284421 76.49811078 130.30152798 76.52983665 C131.69895824 76.53268739 131.69895824 76.53268739 133.12461941 76.53559572 C146.35489785 76.56244589 159.58518001 76.5863172 172.81546621 76.60898072 C174.21380604 76.61137667 174.21380604 76.61137667 175.64039516 76.61382103 C176.57148683 76.6154145 177.50257849 76.61700796 178.46188505 76.61864971 C193.97492406 76.64539704 209.48793488 76.67978485 225.00094354 76.72047478 C234.57193631 76.74527122 244.14289873 76.76358589 253.71391855 76.77363039 C260.26757122 76.78100966 266.82118312 76.79551803 273.3748088 76.81569462 C277.1585596 76.8271078 280.94224457 76.83521874 284.72601414 76.83468628 C288.82317223 76.83418138 292.92013119 76.84895431 297.01725674 76.86527061 C298.82044084 76.86134533 298.82044084 76.86134533 300.6600529 76.85734075 C301.75461971 76.86418955 302.84918653 76.87103834 303.97692204 76.87809467 C304.92297042 76.87983092 305.86901881 76.88156717 306.84373534 76.88335603 C309.49063049 77.15225712 311.11022881 77.70523878 313.34059048 79.13701439 C314.88645923 82.2287519 314.63418569 84.73130991 314.34059048 88.13701439 C312.32303616 90.7675115 311.12441203 91.98020268 307.84011662 92.63726038 C306.89232929 92.63736771 305.94454195 92.63747505 304.96803379 92.63758564 C303.32313377 92.65230708 303.32313377 92.65230708 301.64500344 92.66732591 C299.83833193 92.6529184 299.83833193 92.6529184 297.99516201 92.63821983 C296.71530324 92.64375423 295.43544447 92.64928863 294.1168021 92.65499073 C290.56122052 92.66977698 287.0060804 92.65954547 283.45051289 92.64525402 C279.61658305 92.6341648 275.7827162 92.64608051 271.94879055 92.65509605 C264.43410653 92.66904856 256.91959028 92.66145566 249.40491422 92.64642047 C240.64768774 92.62956674 231.89050316 92.63277025 223.13326548 92.63651455 C207.49726182 92.64239772 191.86133857 92.62820841 176.2253561 92.60356712 C161.07005193 92.57968614 145.91485539 92.57254628 130.75953579 92.58305931 C114.25318337 92.59448906 97.74688079 92.59637003 81.24052894 92.58196121 C79.47716928 92.58043544 77.71380961 92.57891508 75.95044994 92.57740021 C75.08290513 92.57664239 74.21536032 92.57588458 73.32152627 92.5751038 C67.22609859 92.57037362 61.13069325 92.57220371 55.03526592 92.57646561 C47.59282666 92.58141164 40.15048887 92.57532331 32.70807274 92.55557131 C28.91496282 92.54575046 25.12200684 92.54053704 21.32888889 92.54846382 C17.20440052 92.55690602 13.08031679 92.54184084 8.95585537 92.52469444 C7.77371492 92.53070449 6.59157446 92.53671453 5.37361157 92.5429067 C-10.20913044 92.42576049 -23.02282679 89.15831715 -34.51878452 78.42607689 C-44.12078095 68.15824859 -47.35889521 56.51947223 -47.00706577 42.66045189 C-46.04064789 32.86596955 -42.6075628 24.88268652 -36.65940952 17.13701439 C-35.79315952 15.83763939 -35.79315952 15.83763939 -34.90940952 14.51201439 C-25.68827087 4.77859025 -13.28057934 0.03241266 0 0 Z " fill="#129490" transform="translate(98.65940952301025,5.862985610961914)"/>
<path d="M0 0 C1.29764481 -0.00367669 2.59528962 -0.00735338 3.932257 -0.01114148 C7.52301957 -0.0211156 11.11376544 -0.02487078 14.7045399 -0.02753079 C18.5811557 -0.03144705 22.45775843 -0.04102383 26.33436584 -0.04974365 C35.68563686 -0.06946181 45.03690889 -0.07956438 54.38819548 -0.08847144 C58.79235496 -0.09285844 63.19651324 -0.09822385 67.60067177 -0.10346031 C82.23819956 -0.12046129 96.87572661 -0.13495869 111.51326275 -0.14220905 C115.30749195 -0.14411889 119.10172114 -0.14603924 122.89595032 -0.147995 C124.31047601 -0.14872061 124.31047601 -0.14872061 125.75357798 -0.14946087 C141.05350286 -0.15777366 156.35334988 -0.18313662 171.6532407 -0.21557567 C187.36065557 -0.24860775 203.06803077 -0.26665397 218.77548057 -0.26985329 C227.59520895 -0.27202102 236.41482348 -0.28080894 245.23451805 -0.30631447 C252.73938321 -0.32796816 260.24410682 -0.33609797 267.74899968 -0.32634769 C271.57943357 -0.3217886 275.40957506 -0.32378219 279.23996925 -0.34310913 C283.38756388 -0.36385676 287.53450379 -0.35380295 291.68212891 -0.34057617 C292.89913331 -0.35154542 294.11613772 -0.36251466 295.37002105 -0.37381631 C297.03184659 -0.36094497 297.03184659 -0.36094497 298.72724438 -0.34781361 C299.68490174 -0.34879041 300.64255911 -0.34976722 301.6292364 -0.35077363 C304.92832685 0.30076731 306.11975898 1.51091748 308.15058899 4.14717102 C308.88193227 10.1023949 308.88193227 10.1023949 306.83808899 13.02217102 C303.55917777 15.20811183 300.68244494 15.27145198 296.86425877 15.26907635 C295.76144961 15.2708506 294.65864045 15.27262485 293.52241284 15.27445287 C292.30590619 15.27133825 291.08939954 15.26822364 289.83602905 15.26501465 C288.54744647 15.26571923 287.25886389 15.26642381 285.93123335 15.26714975 C283.09630171 15.26867433 280.26139514 15.26702919 277.42646599 15.2630024 C272.81383257 15.25648432 268.20121424 15.25681059 263.58857727 15.2580719 C257.75916185 15.25919291 251.92975117 15.2585469 246.10033625 15.25587109 C234.63793875 15.25074644 223.17558525 15.2590949 211.7131958 15.27249146 C209.90875421 15.27453818 208.10431262 15.27658051 206.29987103 15.27861851 C202.64614672 15.2827748 198.99242248 15.28698999 195.33869827 15.29122603 C185.94127942 15.30203193 176.54385989 15.31183473 167.1464386 15.32026672 C166.20325795 15.32111797 165.26007729 15.32196922 164.28831541 15.32284627 C149.01942654 15.33605371 133.75058996 15.33105624 118.48170168 15.32019516 C102.80144342 15.30955529 87.12131515 15.3217778 71.44108671 15.35427743 C61.77269726 15.37353307 52.10465541 15.37459039 42.43627136 15.35212115 C35.80349906 15.3383476 29.17097956 15.34656049 22.53824211 15.37184574 C18.71483559 15.38575539 14.892068 15.39008258 11.06868553 15.36802101 C6.91461086 15.34429554 2.76205543 15.36728828 -1.39199829 15.39440918 C-3.18664352 15.37300685 -3.18664352 15.37300685 -5.01754421 15.35117215 C-14.07066049 15.47024008 -21.90465112 17.84936145 -28.85299534 23.88861531 C-30.43255232 25.54695936 -31.63766448 27.20516664 -32.84941101 29.14717102 C-33.25933289 29.79170227 -33.66925476 30.43623352 -34.09159851 31.10029602 C-38.0517367 38.47434645 -38.13122839 47.04046544 -36.11894226 55.05732727 C-32.97644442 63.56131121 -27.98150771 69.08847538 -19.84941101 73.14717102 C-15.81189011 74.67509413 -12.46683579 75.39721751 -8.15597343 75.3977108 C-7.03877415 75.4027095 -5.92157486 75.40770819 -4.77052104 75.41285837 C-3.55340501 75.40819515 -2.33628898 75.40353194 -1.08229065 75.39872742 C0.86902026 75.40318263 0.86902026 75.40318263 2.85975158 75.40772784 C6.46420825 75.41575846 10.06856098 75.41146561 13.67301726 75.40520906 C17.56260315 75.4006726 21.45216932 75.40771675 25.3417511 75.41351318 C32.07951186 75.42214319 38.81724636 75.42395509 45.55501175 75.42156601 C55.30103675 75.41846902 65.04700365 75.43010441 74.79301403 75.44611581 C90.61125648 75.47207376 106.42949897 75.49209571 122.24775696 75.50556946 C123.66761683 75.50678501 123.66761683 75.50678501 125.11616074 75.50802512 C138.55874782 75.51925426 152.00133076 75.5245296 165.44392191 75.52741225 C166.39110154 75.52761624 167.33828117 75.52782023 168.31416321 75.5280304 C169.26018985 75.52823033 170.20621649 75.52843027 171.1809106 75.52863626 C186.94256439 75.53236598 202.70415508 75.55142727 218.46577728 75.58312476 C228.19036568 75.60206279 237.91479248 75.60798651 247.63939427 75.59730758 C254.29819548 75.59100053 260.95688055 75.59899478 267.61565627 75.6183617 C271.46024388 75.62907014 275.30454965 75.63315074 279.14913559 75.61989021 C283.31214027 75.60567504 287.47445316 75.62211123 291.63743591 75.64164734 C292.85901339 75.63252268 294.08059086 75.62339803 295.33918583 75.61399686 C297.00716152 75.62931815 297.00716152 75.62931815 298.70883369 75.64494896 C300.1506895 75.64560106 300.1506895 75.64560106 301.6216737 75.64626634 C304.92303576 76.30017029 306.11371685 77.51263209 308.15058899 80.14717102 C308.65058899 83.64717102 308.65058899 83.64717102 308.15058899 87.14717102 C306.11830799 89.77248324 304.92721189 90.99266299 301.63614041 91.64741701 C300.20453301 91.64757801 300.20453301 91.64757801 298.74400425 91.64774227 C297.08772899 91.66246371 297.08772899 91.66246371 295.39799362 91.67748255 C293.57862609 91.66307504 293.57862609 91.66307504 291.72250366 91.64837646 C289.7894065 91.65667806 289.7894065 91.65667806 287.81725687 91.66514736 C284.23694259 91.67993401 280.65706669 91.66970188 277.07676637 91.65541065 C273.2162707 91.64432179 269.35583759 91.65623697 265.49534607 91.66525269 C257.92886051 91.67920501 250.36254157 91.67161263 242.79606391 91.6565771 C233.97961477 91.63972494 225.16320724 91.64292664 216.34674697 91.64667118 C200.60644126 91.65255422 184.86621544 91.63836505 169.12593079 91.61372375 C153.86678567 91.58983845 138.60774748 91.58270462 123.34858704 91.59321594 C106.73054295 91.60464285 90.11254837 91.60653049 73.49450487 91.59211785 C71.71964833 91.59059206 69.94479178 91.5890717 68.16993523 91.58755684 C67.29672148 91.58679902 66.42350773 91.58604121 65.52383297 91.58526043 C59.38585655 91.5805284 53.24790229 91.58236163 47.10992622 91.58662224 C39.61731963 91.5915656 32.12481388 91.58549157 24.63223029 91.56572794 C20.8129161 91.55589998 16.99375495 91.55070155 13.17443275 91.55862045 C9.02332088 91.56705055 4.8726121 91.55201128 0.7215271 91.53485107 C-0.47130809 91.54086112 -1.66414328 91.54687117 -2.893125 91.55306333 C-14.876894 91.4633706 -25.35075479 89.76102512 -34.84941101 82.14717102 C-35.47460632 81.68310852 -36.09980164 81.21904602 -36.74394226 80.74092102 C-44.70870232 74.49405038 -51.1180092 64.31567241 -52.59941101 54.20967102 C-52.70919999 52.85739213 -52.7911382 51.50264735 -52.84941101 50.14717102 C-52.88937195 49.36471008 -52.92933289 48.58224915 -52.97050476 47.77607727 C-53.34295878 33.73236977 -48.75736213 22.51745178 -39.12675476 12.22138977 C-27.28041238 1.43166798 -15.32364247 -0.0023342 0 0 Z " fill="#129490" transform="translate(132.8494110107422,252.8528289794922)"/>
<path d="M0 0 C35.31889232 -0.04030303 35.31889232 -0.04030303 50.07226562 -0.04882812 C60.27580261 -0.05477133 70.47933137 -0.06177357 80.68286133 -0.07543945 C88.11266255 -0.08538568 95.54245713 -0.09185328 102.97226483 -0.09408849 C106.9087332 -0.09539571 110.84518253 -0.09848221 114.78164482 -0.10573006 C118.48253327 -0.11248931 122.18339475 -0.11461716 125.88428879 -0.11310768 C127.89870802 -0.11351638 129.91312427 -0.11891207 131.92753601 -0.12442017 C133.1153064 -0.1230455 134.30307678 -0.12167084 135.52684021 -0.12025452 C136.5657009 -0.12117631 137.6045616 -0.1220981 138.67490292 -0.12304783 C141 0 141 0 142 1 C142.11026638 3.28956094 142.14915207 5.58257252 142.16113281 7.87475586 C142.16609772 8.59345352 142.17106262 9.31215118 142.17617798 10.05262756 C142.19083328 12.44004254 142.1976068 14.8273911 142.203125 17.21484375 C142.20887325 18.86772159 142.21463102 20.5205994 142.22039795 22.17347717 C142.23091724 25.64291699 142.23675396 29.11233357 142.24023438 32.58178711 C142.24572405 37.03543957 142.26975806 41.48878704 142.29820633 45.94234371 C142.31679525 49.35747689 142.32203627 52.77253602 142.32357025 56.18771553 C142.32660532 57.83002962 142.33466245 59.47234215 142.34775543 61.11460686 C142.36473998 63.40859312 142.36295491 65.70182665 142.35644531 67.99584961 C142.36009094 69.30299423 142.36373657 70.61013885 142.36749268 71.95689392 C142.24622009 72.96111893 142.12494751 73.96534393 142 75 C138.70394243 77.19737171 137.72686903 77.25276244 133.89891911 77.26450634 C132.83732769 77.27258853 131.77573628 77.28067072 130.68197542 77.28899783 C128.92611413 77.28711891 128.92611413 77.28711891 127.13478088 77.28520203 C125.27396855 77.29494898 125.27396855 77.29494898 123.37556404 77.30489284 C119.92465882 77.32093279 116.47394287 77.32800337 113.02301562 77.33133328 C109.30263422 77.33707415 105.58230371 77.35426042 101.86195374 77.37002563 C94.563754 77.39911726 87.26556398 77.41753136 79.96732283 77.43236574 C71.44822013 77.45005917 62.92916085 77.47808965 54.41008829 77.50649796 C39.18006655 77.5569127 23.95003401 77.59763049 8.7199707 77.63305664 C-6.0069459 77.66731874 -20.73381951 77.70869785 -35.46069336 77.75805664 C-36.36406854 77.76108359 -37.26744372 77.76411054 -38.1981939 77.76722922 C-39.1001018 77.77025126 -40.00200969 77.7732733 -40.93124813 77.77638692 C-57.73862011 77.83262733 -74.54600699 77.88162643 -91.35340999 77.92758697 C-97.26591593 77.94392831 -103.17841282 77.96242446 -109.09090996 77.98166466 C-116.33419805 78.00510452 -123.57748475 78.02434633 -130.82079672 78.03869756 C-134.50421021 78.04607175 -138.18759892 78.05498521 -141.87099457 78.06874657 C-160.27516754 78.13600574 -178.61310057 77.80709457 -197 77 C-197 76.67 -197 76.34 -197 76 C-131.99 76 -66.98 76 0 76 C0 50.92 0 25.84 0 0 Z " fill="#445D9D" transform="translate(285,176)"/>
<path d="M0 0 C31.35 0 62.7 0 95 0 C95 25.41 95 50.82 95 77 C63.65 77 32.3 77 0 77 C0 51.59 0 26.18 0 0 Z " fill="#B7092B" transform="translate(318,98)"/>
<path d="M0 0 C1.6591986 -0.00576172 1.6591986 -0.00576172 3.35191637 -0.01163983 C5.15905797 -0.01034011 5.15905797 -0.01034011 7.00270748 -0.00901413 C8.29062519 -0.01198525 9.57854291 -0.01495637 10.90548843 -0.01801753 C14.47377904 -0.02606548 18.0420495 -0.02787586 21.61034811 -0.028615 C25.46109547 -0.03046928 29.31183247 -0.03801826 33.16257381 -0.04475021 C41.57757368 -0.05831601 49.99256877 -0.06435485 58.40757775 -0.06876087 C63.66108981 -0.07152494 68.91460003 -0.07576247 74.16811085 -0.08026505 C88.71295112 -0.09245292 103.25778992 -0.10275481 117.80263519 -0.10614014 C118.7329642 -0.1063597 119.66329321 -0.10657927 120.62181401 -0.10680549 C122.02062809 -0.10713291 122.02062809 -0.10713291 123.44770104 -0.10746694 C125.33736932 -0.1079104 127.22703761 -0.10835697 129.11670589 -0.10880661 C130.05404499 -0.10902804 130.99138408 -0.10924947 131.95712738 -0.10947761 C147.15942718 -0.11342917 162.36167914 -0.13089624 177.56396044 -0.15416613 C193.17077771 -0.17786267 208.77757095 -0.19034113 224.38440651 -0.19150805 C233.14770868 -0.1924255 241.91094844 -0.19819583 250.67423344 -0.21632767 C258.13260004 -0.2317054 265.59088494 -0.23686273 273.04926438 -0.22858956 C276.85546293 -0.22467545 280.66149679 -0.22564972 284.46767521 -0.23964691 C288.59080053 -0.25467144 292.71355263 -0.24654247 296.83669186 -0.23606491 C298.64717954 -0.24814952 298.64717954 -0.24814952 300.49424273 -0.26047826 C301.59776738 -0.25388841 302.70129204 -0.24729857 303.83825684 -0.24050903 C304.79000103 -0.24110612 305.74174523 -0.24170321 306.72233015 -0.24231839 C310.17674726 0.24786197 312.87391293 1.64913284 315.35620785 4.13142776 C315.9441542 10.36365912 315.9441542 10.36365912 313.67218363 13.33050764 C310.86069356 15.51674339 309.51575255 15.63203026 305.98809528 15.63364983 C304.89251187 15.64386402 303.79692845 15.65407821 302.66814554 15.66460192 C301.46486034 15.65547727 300.26157513 15.64635261 299.02182674 15.63695145 C297.74322926 15.64304157 296.46463178 15.64913169 295.14728892 15.65540636 C291.59539682 15.67182139 288.04392933 15.66335035 284.49203706 15.65091515 C280.66226496 15.64186951 276.83257065 15.65587464 273.00281429 15.66717911 C266.3643144 15.68369504 259.72593497 15.68581068 253.08742046 15.67841339 C243.47833911 15.66790206 233.86940525 15.68128201 224.26034351 15.70087795 C208.65639286 15.73223416 193.05247334 15.74722466 177.448493 15.75056839 C176.51432508 15.75077238 175.58015715 15.75097637 174.6176811 15.75118653 C173.2147196 15.75149159 173.2147196 15.75149159 171.78341544 15.7518028 C158.53765532 15.7547198 145.29190483 15.76151651 132.04614925 15.77302933 C131.11493757 15.77383462 130.18372588 15.77463992 129.22429566 15.77546962 C113.68643928 15.78923451 98.14860002 15.81103321 82.61075938 15.83689916 C73.02915501 15.85233026 63.44760669 15.85955695 53.86599012 15.85610424 C47.2959332 15.85406077 40.7259041 15.85873959 34.15585439 15.86864759 C30.36731505 15.87406939 26.57884783 15.87617292 22.79030895 15.86947441 C18.67764489 15.86223932 14.56515024 15.87038723 10.45249081 15.87987137 C9.26258994 15.87520815 8.07268906 15.87054494 6.84673059 15.86574042 C-3.94292671 15.91427603 -12.5507975 16.58158711 -20.64379215 24.13142776 C-26.55979631 30.18188656 -29.82499914 36.51993794 -30.14379215 45.00642776 C-29.73989273 55.2472325 -26.13765463 63.16345038 -18.64379215 70.13142776 C-17.9167609 70.52974808 -17.18972965 70.92806839 -16.44066715 71.33845901 C-14.64379215 73.13142776 -14.64379215 73.13142776 -14.25316715 76.92439651 C-14.27968939 78.38975007 -14.32730098 79.85484327 -14.39379215 81.31892776 C-14.41183903 82.06851761 -14.4298859 82.81810745 -14.44847965 83.59041214 C-14.49555106 85.43796487 -14.5672945 87.28485935 -14.64379215 89.13142776 C-25.58080292 85.78912749 -34.76333156 78.32441607 -40.51097965 68.40877151 C-46.56114894 56.24584498 -47.3850224 44.02139327 -43.69066715 30.95174026 C-39.17281189 18.78050332 -30.61537396 9.50523857 -18.9836359 3.83455276 C-12.68993935 1.21455239 -6.84025071 0.00895714 0 0 Z " fill="#E82B3D" transform="translate(125.64379215240479,343.8685722351074)"/>
<path d="M0 0 C83.82 0 167.64 0 254 0 C212.05150675 33.5587946 146.35930137 39.68400245 95 34 C61.15246425 29.74199444 29.45248127 18.01698918 0 1 C0 0.67 0 0.34 0 0 Z " fill="#C77C48" transform="translate(129,471)"/>
<path d="M0 0 C34.96526549 -0.09120255 69.93050362 -0.16201394 104.89586301 -0.20426132 C109.02155861 -0.20926429 113.14725397 -0.21444157 117.27294922 -0.21972656 C118.09431904 -0.2207758 118.91568886 -0.22182505 119.76194867 -0.22290608 C133.07062775 -0.24032288 146.37923788 -0.27186756 159.68787602 -0.30861118 C173.33844083 -0.34598519 186.98896947 -0.36822834 200.63958335 -0.37635398 C209.06633396 -0.38184912 217.49288972 -0.39922003 225.91958037 -0.43166587 C231.69397104 -0.45277009 237.46826062 -0.45920937 243.24268708 -0.45400551 C246.57698119 -0.45143724 249.91065857 -0.45761001 253.2449398 -0.4768219 C256.85654168 -0.49661776 260.4672985 -0.49197642 264.07891846 -0.48101807 C265.13727787 -0.49266943 266.19563729 -0.5043208 267.2860682 -0.51632524 C274.33976214 -0.45816486 274.33976214 -0.45816486 277.65522385 1.84256363 C279.49103874 4.78777783 279.49744747 6.5889316 279 10 C277.22015595 13.1359157 276.47691793 13.84102736 273 15 C271.4578633 15.0902138 269.91208734 15.12375612 268.36731434 15.12304783 C266.93190413 15.1260344 266.93190413 15.1260344 265.46749574 15.12908131 C264.41400538 15.12616847 263.36051502 15.12325563 262.27510071 15.12025452 C261.15772764 15.12110894 260.04035457 15.12196337 258.88912171 15.12284368 C255.12569075 15.12449756 251.36230385 15.11897857 247.59887695 15.11352539 C244.90881245 15.11324347 242.21875069 15.11335726 239.52868652 15.1139679 C233.72722729 15.11449273 227.9257793 15.11135011 222.12432289 15.10573006 C213.73634871 15.09760964 205.34837996 15.09499928 196.96040227 15.09374207 C183.35209778 15.0915524 169.74379928 15.08489462 156.13549805 15.07543945 C142.91479523 15.06626313 129.69409403 15.05918337 116.47338867 15.05493164 C115.25139624 15.05453756 115.25139624 15.05453756 114.00471709 15.05413551 C109.91787755 15.05283049 105.831038 15.05156678 101.74419844 15.05032361 C67.82946124 15.03995365 33.91473145 15.02226341 0 15 C0 10.05 0 5.1 0 0 Z " fill="#E92B3C" transform="translate(163,421)"/>
<path d="M0 0 C7.73479385 4.71953523 13.99480201 10.44674599 20.53857422 16.64013672 C22.34860967 18.32438287 24.22810376 19.91470889 26.125 21.5 C36.88935292 30.89352718 45.69828961 42.43842688 54 54 C54.70850098 54.84361084 55.41700195 55.68722168 56.14697266 56.55639648 C58.75408297 61.40136235 58.55639653 65.56124602 58.49609375 70.98046875 C58.49754898 72.0302742 58.49900421 73.08007965 58.50050354 74.16169739 C58.49884812 76.3730447 58.48732699 78.58440395 58.46655273 80.7956543 C58.43750831 84.18652969 58.44596966 87.57584965 58.45898438 90.96679688 C58.45274942 93.11719512 58.44436039 95.26758842 58.43359375 97.41796875 C58.43652939 98.43360397 58.43946503 99.4492392 58.44248962 100.49565125 C58.42346336 101.90775627 58.42346336 101.90775627 58.40405273 103.34838867 C58.39864975 104.17634445 58.39324677 105.00430023 58.38768005 105.85734558 C57.90056886 108.54954224 57.22776259 109.4321208 55 111 C52.96882629 111.36076355 52.96882629 111.36076355 50.62036133 111.34057617 C49.72740356 111.34021362 48.8344458 111.33985107 47.91442871 111.33947754 C46.97973755 111.32412964 46.04504639 111.30878174 45.08203125 111.29296875 C43.7891217 111.28843689 43.7891217 111.28843689 42.47009277 111.28381348 C39.25077336 111.26811914 36.03162464 111.22623507 32.8125 111.1875 C22.0153125 111.0946875 22.0153125 111.0946875 11 111 C11 85.59 11 60.18 11 34 C9.68 33.67 8.36 33.34 7 33 C8.485 32.505 8.485 32.505 10 32 C10 28.37 10 24.74 10 21 C6.7 20.34 3.4 19.68 0 19 C0 12.73 0 6.46 0 0 Z " fill="#FE3744" transform="translate(402,64)"/>
<path d="M0 0 C11.1065625 -0.0309375 11.1065625 -0.0309375 22.4375 -0.0625 C24.7777124 -0.071604 27.1179248 -0.08070801 29.52905273 -0.09008789 C31.37223249 -0.09300694 33.21541288 -0.09555552 35.05859375 -0.09765625 C36.50836609 -0.1053302 36.50836609 -0.1053302 37.98742676 -0.11315918 C38.90092896 -0.11328003 39.81443115 -0.11340088 40.75561523 -0.11352539 C41.95141457 -0.11685631 41.95141457 -0.11685631 43.17137146 -0.12025452 C45 0 45 0 46 1 C46.09971155 3.29511496 46.12799866 5.59334549 46.12939453 7.890625 C46.13114685 8.61092896 46.13289917 9.33123291 46.13470459 10.07336426 C46.13912288 12.46560034 46.13618521 14.8577631 46.1328125 17.25 C46.13348555 18.90527358 46.13445558 20.56054707 46.13571167 22.21582031 C46.13718861 25.68946267 46.13503421 29.16307937 46.13037109 32.63671875 C46.1246738 37.09932498 46.12795283 41.56187108 46.13394356 46.0244751 C46.13754927 49.4438523 46.13641054 52.86321515 46.13381577 56.28259277 C46.13314652 57.92850756 46.13397482 59.57442363 46.13629532 61.22033691 C46.13882202 63.51671831 46.13498103 65.81300099 46.12939453 68.109375 C46.12859894 69.41874023 46.12780334 70.72810547 46.12698364 72.07714844 C46 75 46 75 45 76 C43.58774954 76.0928726 42.17091066 76.11746772 40.75561523 76.11352539 C39.84211304 76.11340454 38.92861084 76.11328369 37.98742676 76.11315918 C36.53765442 76.10548523 36.53765442 76.10548523 35.05859375 76.09765625 C34.17498169 76.09664917 33.29136963 76.09564209 32.38098145 76.09460449 C29.06647451 76.08935531 25.75198601 76.07539417 22.4375 76.0625 C15.033125 76.041875 7.62875 76.02125 0 76 C0 50.92 0 25.84 0 0 Z " fill="#293D7B" transform="translate(381,176)"/>
<path d="M0 0 C16.83 0 33.66 0 51 0 C51 20.13 51 40.26 51 61 C46.39308204 60.07861641 45.33804671 59.83260773 42.0390625 57.05859375 C41.31976563 56.47529297 40.60046875 55.89199219 39.859375 55.29101562 C38.37248729 54.05757468 36.89067244 52.81799221 35.4140625 51.57226562 C31.89692669 48.73657488 29.77400476 47.12204224 25.234375 46.40625 C21.76458313 47.04321662 20.25695815 47.76836023 17.625 50.0625 C16.87089844 50.69414062 16.11679688 51.32578125 15.33984375 51.9765625 C14.56769531 52.64429688 13.79554687 53.31203125 13 54 C11.40625544 55.32513593 9.80236391 56.63818421 8.1875 57.9375 C7.12595703 58.81728516 7.12595703 58.81728516 6.04296875 59.71484375 C4 61 4 61 0 61 C0 40.87 0 20.74 0 0 Z " fill="#2DA0DB" transform="translate(112,392)"/>
<path d="M0 0 C0.900103 -0.00845947 1.80020599 -0.01691895 2.72758484 -0.02563477 C3.7126149 -0.01956207 4.69764496 -0.01348938 5.71252441 -0.00723267 C7.27140129 -0.0151181 7.27140129 -0.0151181 8.86177063 -0.02316284 C12.30501227 -0.03639174 15.7477935 -0.02761429 19.19104004 -0.01748657 C21.57853281 -0.01950647 23.96602497 -0.0224172 26.35351562 -0.02618408 C31.36045193 -0.03061136 36.36722783 -0.02416323 41.37414551 -0.01016235 C47.80060341 0.00692956 54.22668547 -0.00290943 60.65312958 -0.02087975 C65.58411505 -0.03170656 70.51501102 -0.02827627 75.44599915 -0.02049637 C77.81594385 -0.01849132 80.18589661 -0.02096427 82.55583191 -0.02793503 C85.86479295 -0.03553121 89.17314046 -0.02397051 92.48205566 -0.00723267 C93.46708572 -0.01330536 94.45211578 -0.01937805 95.46699524 -0.02563477 C96.36709824 -0.01717529 97.26720123 -0.00871582 98.19458008 0 C99.36816952 0.00169662 99.36816952 0.00169662 100.56546783 0.00342751 C103.1335949 0.48059924 104.01981405 1.33386261 105.59729004 3.38095093 C106.03088379 5.75595093 106.03088379 5.75595093 106.03479004 8.38095093 C106.05412598 9.24720093 106.07346191 10.11345093 106.09338379 11.00595093 C105.59729004 13.38095093 105.59729004 13.38095093 103.84380341 15.00515842 C101.33924657 16.53897993 100.06123154 16.75941122 97.15698242 16.76863098 C95.83217613 16.78348793 95.83217613 16.78348793 94.48060608 16.79864502 C93.51944382 16.79414337 92.55828156 16.78964172 91.56799316 16.78500366 C90.54970932 16.79186691 89.53142548 16.79873016 88.48228455 16.80580139 C85.11422814 16.82411233 81.74663557 16.820226 78.37854004 16.81454468 C76.03971199 16.81910408 73.70088529 16.82440892 71.36206055 16.83042908 C66.45945799 16.8393684 61.55701826 16.83692723 56.65441895 16.82699585 C50.36589003 16.81549945 44.07792206 16.83572432 37.78946686 16.86491299 C32.95966003 16.88324065 28.12998851 16.88298945 23.30015564 16.87727547 C20.98126946 16.87712186 18.66237432 16.88319828 16.34352112 16.89556694 C13.10418269 16.91041158 9.8658921 16.89984757 6.62658691 16.88265991 C5.18484352 16.89716187 5.18484352 16.89716187 3.713974 16.91195679 C-2.77276195 16.83972949 -2.77276195 16.83972949 -5.99853516 14.49046326 C-7.62387846 12.04868627 -7.91414605 10.73153287 -7.84020996 7.81845093 C-7.8389209 7.05403687 -7.83763184 6.2896228 -7.83630371 5.50204468 C-6.92663998 1.05206807 -4.24537044 0.00613738 0 0 Z " fill="#FEF5F6" transform="translate(193.4027099609375,128.61904907226563)"/>
<path d="M0 0 C0.79198792 0.00054477 1.58397583 0.00108953 2.39996338 0.00165081 C3.30855103 -0.00254368 4.21713867 -0.00673817 5.15325928 -0.01105976 C6.65257996 -0.0026305 6.65257996 -0.0026305 8.18218994 0.00596905 C9.75788757 0.00312153 9.75788757 0.00312153 11.36541748 0.00021648 C14.85129162 -0.0035 18.3369592 0.00722539 21.82281494 0.01842022 C24.23655167 0.01961164 26.65028887 0.02006526 29.06402588 0.01980877 C34.12818291 0.02137515 39.1922694 0.0296766 44.25640869 0.04307842 C50.76023256 0.06006845 57.26397881 0.06389285 63.76782227 0.06313324 C68.75364936 0.06340468 73.73945935 0.06888172 78.72528076 0.07613468 C81.12396108 0.07932547 83.52264335 0.08128971 85.92132568 0.08202839 C89.26873093 0.0841876 92.61605255 0.09292282 95.96343994 0.1036253 C96.96298706 0.10317211 97.96253418 0.10271893 98.99237061 0.10225201 C100.35525208 0.10864948 100.35525208 0.10864948 101.7456665 0.1151762 C102.53765442 0.11685205 103.32964233 0.11852789 104.14562988 0.12025452 C106.07281494 0.24888897 106.07281494 0.24888897 108.07281494 1.24888897 C108.94390656 3.86216382 109.26161293 5.55600068 109.32281494 8.24888897 C109.34859619 8.92951397 109.37437744 9.61013897 109.40093994 10.31138897 C108.96488807 12.88617144 108.09660812 13.63102345 106.07281494 15.24888897 C104.04099274 15.62641239 104.04099274 15.62641239 101.67010498 15.6298399 C100.77000198 15.63829937 99.86989899 15.64675884 98.94252014 15.65547466 C97.95749008 15.64940197 96.97246002 15.64332928 95.95758057 15.63707256 C94.39870369 15.644958 94.39870369 15.644958 92.80833435 15.65300274 C89.36509271 15.66623164 85.92231148 15.65745419 82.47906494 15.64732647 C80.09157217 15.64934637 77.70408001 15.6522571 75.31658936 15.65602398 C70.30965305 15.66045126 65.30287716 15.65400313 60.29595947 15.64000225 C53.86950157 15.62291034 47.44341951 15.63274933 41.0169754 15.65071964 C36.08598993 15.66154646 31.15509396 15.65811617 26.22410583 15.65033627 C23.85416113 15.64833121 21.48420837 15.65080417 19.11427307 15.65777493 C15.80531203 15.6653711 12.49696452 15.65381041 9.18804932 15.63707256 C8.20301926 15.64314526 7.2179892 15.64921795 6.20310974 15.65547466 C5.30300674 15.64701519 4.40290375 15.63855572 3.4755249 15.6298399 C2.69313194 15.62870882 1.91073898 15.62757774 1.10463715 15.62641239 C-1.46403256 15.14913984 -2.35381106 14.30061756 -3.92718506 12.24888897 C-4.29046631 9.83873272 -4.29046631 9.83873272 -4.23968506 7.18638897 C-4.23581787 6.30853741 -4.23195068 5.43068584 -4.22796631 4.52623272 C-3.83903745 1.58148562 -3.02678926 0.39089887 0 0 Z " fill="#435D9F" transform="translate(157.92718505859375,206.7511110305786)"/>
<path d="M0 0 C-0.38671875 0.50789063 -0.7734375 1.01578125 -1.171875 1.5390625 C-2.79412625 3.68332529 -4.39683844 5.8414434 -6 8 C-7.0828125 9.423125 -7.0828125 9.423125 -8.1875 10.875 C-13.98729489 20.87464636 -14.41845377 31.58675931 -11.5 42.625 C-8.99983872 50.09850368 -4.50588518 55.49411482 1 61 C-9.70033879 61.5550608 -18.18412479 61.02679255 -26.8125 54.25 C-32.72690085 48.72617279 -36.39315109 41.81978077 -37.40625 33.7734375 C-37.67887951 23.89061792 -35.67982831 16.42546133 -29.13671875 8.83984375 C-20.27016072 0.47080802 -11.92121268 -0.61047462 0 0 Z " fill="#EBF4FD" transform="translate(132,268)"/>
<path d="M0 0 C-1.299375 1.36125 -1.299375 1.36125 -2.625 2.75 C-11.21824648 12.73122929 -13.81372509 23.1727335 -13 36 C-11.20331442 46.11519834 -5.77749181 53.54708804 1 61 C-10.10960794 61.41748005 -18.19016852 60.16120804 -27 53 C-33.71048566 46.28951434 -36.39587051 39.49350983 -36.5625 30.0625 C-36.49070754 21.476321 -34.09145385 15.55517192 -28.5 9.125 C-27.675 8.42375 -26.85 7.7225 -26 7 C-25.21625 6.29875 -24.4325 5.5975 -23.625 4.875 C-15.88562349 -0.65312608 -9.33536676 -0.34959071 0 0 Z " fill="#FCD682" transform="translate(104,22)"/>
<path d="M0 0 C0.70189453 0.01353516 1.40378906 0.02707031 2.12695312 0.04101562 C3.85579829 0.07629818 5.58424765 0.13010417 7.3125 0.1875 C6.9825 0.8475 6.6525 1.5075 6.3125 2.1875 C6.21521405 4.48467359 6.1845275 6.7847521 6.18310547 9.08398438 C6.18135315 9.79307449 6.17960083 10.50216461 6.17779541 11.23274231 C6.17338554 13.58226959 6.17631185 15.93172192 6.1796875 18.28125 C6.17901421 19.91027847 6.17804398 21.53930684 6.17678833 23.16833496 C6.17531253 26.58472651 6.17746214 30.00109195 6.18212891 33.41748047 C6.18782613 37.80261057 6.18454649 42.18767946 6.17855644 46.57280731 C6.17494766 49.93732161 6.17609088 53.30182133 6.17868423 56.66633606 C6.17935262 58.28351346 6.17852814 59.90069217 6.17620468 61.51786804 C6.17367298 63.7756197 6.17752608 66.03327143 6.18310547 68.29101562 C6.18390106 69.57737915 6.18469666 70.86374268 6.18551636 72.18908691 C6.10458004 75.11246655 6.10458004 75.11246655 7.3125 77.1875 C4.68688891 77.26824203 2.06374324 77.3278623 -0.5625 77.375 C-1.30886719 77.40013672 -2.05523437 77.42527344 -2.82421875 77.45117188 C-4.9921875 77.48046875 -4.9921875 77.48046875 -8.6875 77.1875 C-11.12926516 73.52485226 -10.94600402 71.74419643 -10.9621582 67.37695312 C-10.96726913 66.68883041 -10.97238007 66.0007077 -10.97764587 65.29173279 C-10.99154525 63.01731672 -10.9905851 60.74320349 -10.98828125 58.46875 C-10.9921676 56.8883859 -10.99650214 55.30802283 -11.00126648 53.72766113 C-11.00872912 50.41557427 -11.00843683 47.10359401 -11.00317383 43.79150391 C-10.99737475 39.54423646 -11.01432024 35.29740446 -11.0375185 31.05020905 C-11.05223877 27.78685957 -11.05312997 24.52361544 -11.05000877 21.26023865 C-11.05052271 19.69411862 -11.05577393 18.1279928 -11.06582069 16.56190491 C-11.07813714 14.37366278 -11.07142356 12.18627499 -11.05981445 9.99804688 C-11.06044388 8.75244995 -11.0610733 7.50685303 -11.0617218 6.22351074 C-10.6875 3.1875 -10.6875 3.1875 -9.38761902 1.28015137 C-6.50930555 -0.56971509 -3.30003996 -0.12016952 0 0 Z " fill="#EA2B3D" transform="translate(111.6875,97.8125)"/>
<path d="M0 0 C5.28 0 10.56 0 16 0 C16 25.08 16 50.16 16 76 C10.72 76 5.44 76 0 76 C-1.46671702 73.06656597 -1.12734055 70.4704509 -1.12939453 67.1953125 C-1.13114685 66.49597595 -1.13289917 65.7966394 -1.13470459 65.07611084 C-1.13911423 62.75904882 -1.13618823 60.44206283 -1.1328125 58.125 C-1.13348579 56.51839178 -1.13445603 54.91178365 -1.13571167 53.30517578 C-1.13718744 49.93586254 -1.13503796 46.56657579 -1.13037109 43.19726562 C-1.12467387 38.87266939 -1.12795352 34.54813522 -1.13394356 30.22354126 C-1.13755242 26.90535004 -1.13640908 23.58717359 -1.13381577 20.26898193 C-1.1331474 18.67413323 -1.13397178 17.07928319 -1.13629532 15.48443604 C-1.13882716 13.25781689 -1.13497373 11.03129907 -1.12939453 8.8046875 C-1.12859894 7.53608887 -1.12780334 6.26749023 -1.12698364 4.96044922 C-1 2 -1 2 0 0 Z " fill="#1A2B63" transform="translate(70,176)"/>
<path d="M0 0 C1.02574883 0.00424484 1.02574883 0.00424484 2.07221985 0.00857544 C4.2527529 0.01975566 6.4328727 0.04485559 8.61328125 0.0703125 C10.09309302 0.08034512 11.57291124 0.08947048 13.05273438 0.09765625 C16.67721725 0.11968769 20.30145891 0.15420248 23.92578125 0.1953125 C23.43682373 0.53989502 22.94786621 0.88447754 22.4440918 1.23950195 C20.20246443 4.1270525 20.55363158 6.9880209 20.6328125 10.48828125 C20.63917976 11.54732414 20.63917976 11.54732414 20.64567566 12.62776184 C20.66245091 14.87983553 20.70009882 17.13100992 20.73828125 19.3828125 C20.75332968 20.91079435 20.76701781 22.43879026 20.77929688 23.96679688 C20.81235036 27.70998122 20.86412293 31.45249446 20.92578125 35.1953125 C21.58578125 35.5253125 22.24578125 35.8553125 22.92578125 36.1953125 C20.17107441 38.95001934 11.82453907 37.43069405 8.11328125 37.4453125 C6.16711914 37.47625 6.16711914 37.47625 4.18164062 37.5078125 C2.93576172 37.51296875 1.68988281 37.518125 0.40625 37.5234375 C-0.73948486 37.5327832 -1.88521973 37.54212891 -3.06567383 37.55175781 C-6.48113163 37.14710242 -7.85340584 36.83261119 -10.07421875 34.1953125 C-10.57592773 30.94897461 -10.57592773 30.94897461 -10.5703125 26.97265625 C-10.57176773 26.271371 -10.57322296 25.57008575 -10.57472229 24.84754944 C-10.57306428 23.3673181 -10.5615136 21.88706935 -10.54077148 20.40698242 C-10.51177374 18.13711697 -10.52017003 15.86958093 -10.53320312 13.59960938 C-10.52696683 12.16144695 -10.51857673 10.72329191 -10.5078125 9.28515625 C-10.49806396 7.97409912 -10.48831543 6.66304199 -10.47827148 5.31225586 C-10.34493408 4.28366455 -10.21159668 3.25507324 -10.07421875 2.1953125 C-6.34881213 -0.28829191 -4.44358902 -0.0362742 0 0 Z " fill="#87352A" transform="translate(10.07421875,434.8046875)"/>
<path d="M0 0 C1.25425781 0.00902344 2.50851563 0.01804687 3.80078125 0.02734375 C4.75339844 0.03894531 5.70601562 0.05054688 6.6875 0.0625 C5.388125 1.42375 5.388125 1.42375 4.0625 2.8125 C-3.36647026 11.56178488 -5.41290394 19.66492363 -7.3125 31.0625 C7.5375 31.0625 22.3875 31.0625 37.6875 31.0625 C37.6875 31.3925 37.6875 31.7225 37.6875 32.0625 C20.8575 32.0625 4.0275 32.0625 -13.3125 32.0625 C-13.3125 40.3125 -13.3125 48.5625 -13.3125 57.0625 C-20.35604939 54.24508024 -24.53620012 50.31931901 -27.6875 43.375 C-30.93154378 35.43414502 -32.057633 26.44023066 -28.75 18.3125 C-24.9627403 10.95134733 -19.32819453 5.34986888 -12.3125 1.0625 C-8.20333828 -0.07695559 -4.24617829 -0.03968391 0 0 Z " fill="#EAF2FC" transform="translate(125.3125,359.9375)"/>
<path d="M0 0 C4.95 0 9.9 0 15 0 C15.27294546 7.24049869 15.47198886 14.47797509 15.60424805 21.72241211 C15.65940016 24.18355491 15.73434651 26.64433996 15.82983398 29.10424805 C16.64484575 50.64758056 16.64484575 50.64758056 12.64306641 55.66845703 C8.38162255 59.28497923 5.64140058 61 0 61 C0 40.87 0 20.74 0 0 Z " fill="#1E8AC1" transform="translate(112,392)"/>
<path d="M0 0 C0.72110962 -0.00287018 1.44221924 -0.00574036 2.18518066 -0.00869751 C3.70825995 -0.01073702 5.2313655 -0.00521497 6.75439453 0.00732422 C9.08555678 0.02338107 11.41498542 0.0074734 13.74609375 -0.01171875 C15.22656633 -0.0097363 16.70703782 -0.00589257 18.1875 0 C18.8844397 -0.00607269 19.58137939 -0.01214539 20.29943848 -0.0184021 C23.19317324 0.02364706 25.13300511 0.07119138 27.53173828 1.77490234 C29.01193412 4.03773046 28.9927245 5.71329384 28.96875 8.3984375 C28.98035156 9.6978125 28.98035156 9.6978125 28.9921875 11.0234375 C28.49653902 13.97789117 28.02087315 14.65755545 25.59375 16.3984375 C22.37915039 16.80249023 22.37915039 16.80249023 18.44140625 16.83203125 C17.3965934 16.83989403 17.3965934 16.83989403 16.33067322 16.84791565 C14.85889009 16.85433275 13.38705566 16.85300279 11.9152832 16.84448242 C9.66719844 16.83597891 7.42166134 16.86472071 5.17382812 16.89648438 C3.74218826 16.89809675 2.31054391 16.89751816 0.87890625 16.89453125 C-0.42167725 16.89638428 -1.72226074 16.8982373 -3.06225586 16.90014648 C-6.92058483 16.32127038 -8.10184009 15.48407593 -10.40625 12.3984375 C-10.90234375 10.14453125 -10.90234375 10.14453125 -10.84375 7.8359375 C-10.84246094 7.07152344 -10.84117187 6.30710938 -10.83984375 5.51953125 C-9.64254752 -0.33751245 -5.09213984 -0.04436969 0 0 Z " fill="#FEF5F6" transform="translate(144.40625,128.6015625)"/>
<path d="M0 0 C1.12347839 0.00607269 1.12347839 0.00607269 2.26965332 0.01226807 C3.03894165 0.01035461 3.80822998 0.00844116 4.60083008 0.00646973 C6.22823412 0.00510799 7.85564902 0.00880368 9.48303223 0.01715088 C11.97855963 0.02785086 14.47336714 0.01725555 16.96887207 0.00445557 C18.54830075 0.00577716 20.12772898 0.00833956 21.70715332 0.01226807 C22.45613892 0.0082196 23.20512451 0.00417114 23.97680664 0 C29.25848089 0.04797064 29.25848089 0.04797064 31.48840332 2.27789307 C31.78918457 4.55523682 31.78918457 4.55523682 31.80090332 7.21539307 C31.81766113 8.0906665 31.83441895 8.96593994 31.85168457 9.86773682 C31.48840332 12.27789307 31.48840332 12.27789307 30.42858887 13.90362549 C27.50385668 15.97526478 24.53680035 15.70643218 21.08215332 15.67633057 C20.3610437 15.67920074 19.63993408 15.68207092 18.89697266 15.68502808 C17.37389337 15.68706758 15.85078782 15.68154554 14.32775879 15.66900635 C11.99659654 15.6529495 9.6671679 15.66885716 7.33605957 15.68804932 C5.85558699 15.68606686 4.3751155 15.68222314 2.89465332 15.67633057 C2.19771362 15.68240326 1.50077393 15.68847595 0.78271484 15.69473267 C-2.11029797 15.65269399 -4.05169667 15.60364834 -6.45178223 13.90362549 C-7.94020316 11.62042001 -7.87584866 9.91843866 -7.82409668 7.21539307 C-7.82022949 6.3375415 -7.8163623 5.45968994 -7.81237793 4.55523682 C-7.17303203 -0.28552503 -4.20288016 0.03817252 0 0 Z " fill="#435D9F" transform="translate(109.5115966796875,206.72210693359375)"/>
<path d="M0 0 C7.72729887 4.71496202 13.98335546 10.43539763 20.52099609 16.62255859 C22.42178441 18.39282068 24.39089574 20.07410611 26.375 21.75 C30.30297999 25.14310612 33.80565118 28.90724057 37 33 C37 33.33 37 33.66 37 34 C27.1 34 17.2 34 7 34 C7.33 33.34 7.66 32.68 8 32 C8.66 32 9.32 32 10 32 C10 28.37 10 24.74 10 21 C6.7 20.34 3.4 19.68 0 19 C0 12.73 0 6.46 0 0 Z " fill="#FC9419" transform="translate(402,64)"/>
</svg>
